<mxfile host="app.diagrams.net" modified="2024-05-21T19:44:38.722Z" agent="Mozilla/5.0 (Windows NT 10.0; Win64; x64) AppleWebKit/537.36 (KHTML, like Gecko) Chrome/122.0.0.0 YaBrowser/24.4.0.0 Safari/537.36" version="24.4.4" etag="V3bkX5584Syhrf5A7O5L" type="device">
  <diagram id="C5RBs43oDa-KdzZeNtuy" name="Page-1">
    <mxGraphModel dx="1680" dy="718" grid="0" gridSize="10" guides="1" tooltips="1" connect="1" arrows="1" fold="1" page="0" pageScale="1" pageWidth="827" pageHeight="1169" math="0" shadow="0">
      <root>
        <mxCell id="WIyWlLk6GJQsqaUBKTNV-0" />
        <mxCell id="WIyWlLk6GJQsqaUBKTNV-1" parent="WIyWlLk6GJQsqaUBKTNV-0" />
        <mxCell id="66BMOyi7AVUWOsAnXy_S-0" value="" style="shape=image;verticalLabelPosition=bottom;labelBackgroundColor=default;verticalAlign=top;aspect=fixed;imageAspect=0;image=data:image/jpeg,/9j/4AAQSkZJRgABAQAAAQABAAD/4gHYSUNDX1BST0ZJTEUAAQEAAAHIAAAAAAQwAABtbnRyUkdCIFhZWiAH4AABAAEAAAAAAABhY3NwAAAAAAAAAAAAAAAAAAAAAAAAAAAAAAAAAAAAAQAA9tYAAQAAAADTLQAAAAAAAAAAAAAAAAAAAAAAAAAAAAAAAAAAAAAAAAAAAAAAAAAAAAAAAAAAAAAAAAAAAAlkZXNjAAAA8AAAACRyWFlaAAABFAAAABRnWFlaAAABKAAAABRiWFlaAAABPAAAABR3dHB0AAABUAAAABRyVFJDAAABZAAAAChnVFJDAAABZAAAAChiVFJDAAABZAAAAChjcHJ0AAABjAAAADxtbHVjAAAAAAAAAAEAAAAMZW5VUwAAAAgAAAAcAHMAUgBHAEJYWVogAAAAAAAAb6IAADj1AAADkFhZWiAAAAAAAABimQAAt4UAABjaWFlaIAAAAAAAACSgAAAPhAAAts9YWVogAAAAAAAA9tYAAQAAAADTLXBhcmEAAAAAAAQAAAACZmYAAPKnAAANWQAAE9AAAApbAAAAAAAAAABtbHVjAAAAAAAAAAEAAAAMZW5VUwAAACAAAAAcAEcAbwBvAGcAbABlACAASQBuAGMALgAgADIAMAAxADb/2wBDAAMCAgICAgMCAgIDAwMDBAYEBAQEBAgGBgUGCQgKCgkICQkKDA8MCgsOCwkJDRENDg8QEBEQCgwSExIQEw8QEBD/2wBDAQMDAwQDBAgEBAgQCwkLEBAQEBAQEBAQEBAQEBAQEBAQEBAQEBAQEBAQEBAQEBAQEBAQEBAQEBAQEBAQEBAQEBD/wAARCAQSAuADASIAAhEBAxEB/8QAHQABAQACAwEBAQAAAAAAAAAAAAcGCAMEBQIBCf/EAGAQAAEDAwICAwcNCgoKAAUDBQABAgMEBQYHERIhCBMxFCI4QVF1shUWFxgyVVdhk5SV0dIjN0JSVlhxc3SBNDU2VGJ2kbGztAkkM0NygpahweElJlOSwkVjojlER4OE/8QAGQEBAAMBAQAAAAAAAAAAAAAAAAECAwQF/8QAPhEBAAEDAgQEBAUBBgYBBQAAAAECESEDMRJBUWEicYGRBBMyoUKxwdHwUgUUYpKi4SMkM3Ky8cIVgqPS4v/aAAwDAQACEQMRAD8A/qmAAAAAAAAAAAAAAAAAAAAAAAAAAAPxzmsar3uRrWpuqquyIhg2W63aY4XCst4yqlkcnbFRr3TIn6Wx7qgGdAirdcs5y5VTTTSa6VtDI3eK7VsjYId/FvG7Z3M+W2HpSZFv6pZhi1iopf8AdUtLI6pZ/wA/NALTJLFCxZJpGsana5y7IefPlGNUu/dORWyHbt6yrjb/AHqSmHo5VtwlSpy7V7Mbsrub6Z1YjadF+Ju253ouixoo/vrviTLq/t4qyZ7l38vJUAye6ay6Y2dVStzK3cl2+5ydZ6O5jlV0o9D6NzmT5m1Fauy8NHO7+5h79p0R0msfD6lYJa6fh7No1Xb+1VMkhxbGqf8A2Ngt7f8A/nZ9QEtf0vtA2u4G5hM93kbbalf/AMD6d0tdFGRtnffK9sT/AHL1ts+y/wD8StNtVrYmzLbStT4oWp/4Pr1PoFTZaKn2/Vt+oCRR9L3QKR3AmZytd5HW2pT/APA9Gk6T2iVcu1PmbF5b99SzN/vYUl9otUibSWykcnxwtX/wdOoxHF6pqtnx63vRybL/AKu1N/8AsB5Fq1b02vKItDmVsXfs6ydI/S2PdgyPHqr+C363Tb//AE6pjv7lMSuugujt839VdP7VUcXbuxyf3Kh4M3RZ0dj52TH32Ze1O4p3t2/tVQK0x7JGo9jkc1exUXdFPoisnR7yG0zOq8P1ny6iVPcUdRVJJSt/5dtz4Wg6VOOP4233Esioo+TYkppIql36XLsigW0EUb0hL3i/e6raXXnHoGrw93QqlVFJ8aNjRXIhnmLatad5jTsnseVULnScmwzSpDMv/wDrfs7/ALAZeB2gAAAAAAAAAAABi+oOpWH6X2iK9ZldO46aeZKeHZivdJIvY1rU5qplBEOkk1rr/pUj2Ncnrwg3RyIqL3ju1FA7XttNGl//AFS5fRs32R7bTRv30uX0bN9krvcFD/MoPk0+odwUP8yg+TT6gJF7bTRv30uX0bN9ke200b99Ll9GzfZK73BQ/wAyg+TT6h3BQ/zKD5NPqAkXttNG/fS5fRs32R7bTRv30uX0bN9krvcFD/MoPk0+odwUP8yg+TT6gJF7bTRv30uX0bN9ke200b99Ll9GzfZK73BQ/wAyg+TT6h3BQ/zKD5NPqAkXttNG/fS5fRs32R7bTRv30uX0bN9krvcFD/MoPk0+odwUP8yg+TT6gJF7bTRv30uX0bN9ke200b99Ll9GzfZK73BQ/wAyg+TT6h3BQ/zKD5NPqAkXttNG/fS5fRs32R7bTRv30uX0bN9krvcFD/MoPk0+odwUP8yg+TT6gJF7bTRv30uX0bN9ke200b99Ll9GzfZK73BQ/wAyg+TT6h3BQ/zKD5NPqAkXttNG/fS5fRs32T6i6Wmirp4YJr9V0yTSNibJPQysYjnLsiK5U2TdVQrfcFD/ADKD5NPqI30uqSki0Kvbo6SFru6KLmkaIqf6zH2AWpj2vY17F3a5EVF8qH0de3fxfTfqWeih2AAAAAAAAAAAAAAAAAAAAAAAAAAAAAAAAAAAAAAAAAAAAAAAAAAAAAHFVVVPRU0tZVytihgYskj3LsjWom6qoHIqo1Fc5URE5qqkuyvXSipLk7GtPbBU5hfGrwrDRuRtPGvj4p13aip407Txaioy7XurdDYrtPYtP2OVktVCnBV3RUXmkb+2Nnx+MqmK4jj2FWmOyY1bIqKlYvErWJze/wAb3L43L41AlbNMNVdSHsq9Us3ltNuX7pFaLE9YXt/oTSc0en6DOMU0c00wqfu3HsQoKarX3dSsfFK9fKrl8ZmgA/ERGps1ERPiP0AAAAAAAAAAAAAAAAAD5cxj04XtRyL4lTcwLJ9CtLsqqnXOvxSkhuS82V9M3q5418rXIZ+AIlJh+tulznVOC5F68rJEvGtnusn+uv3/AAY6he9aifGZLg2t+P5TcfW1fqCpxrI49my26vThRX/ixyLs2Rf+EpBjOdad4vqJbPU7IqJXPj76nqoXcFRTP/Hif2tUDJgRy0ZNluj92osW1Hr1uuO18raW137bZ8D19zFU/u/3i8ixNc17UexyOa5N0VF5KgH6AAAAAAAARDpIfyg0q/rhB6Di3kQ6SH8oNKv64Qeg4C3gAAAAAAAAAAAAAB07vd7dYrdPdbtVx01LTtV8kj3bIifX8QHcBHH9KvS5j3M7nyN3CqpxNtEqovxovjQ/PbW6XfzXJfoeUCyAjftrdLv5rkv0PKPbW6XfzXJfoeUCyGlXTe6V2DYTT3nRHO6Grs9dWxUtfbK1yccNZGydrnIm3uVRGr2lx9tbpd/Ncl+h5TVPp/2rTfpVaf26HFLdfGZVZqyN9NLJZ5GrJTuXaRiuXsREVVQDazo19IvHukbj1wyPDLNWQ2G2VHcFPX1HJKxzWpxOY3tRCyGsOiGq2ieiel+P6bWG35C2Gz0ccMj22SRFll2756+VVUzr21ul381yX6HlAsgI37a3S7+a5L9Dyj21ul381yX6HlAsgI37a3S7+a5L9Dyno4/0k9M8iu0Fnglu1HLUO4WSV1vfBFxeRXu5IoFTB+IqORHNVFReaKnjP0AAAAAAAAAAAAAAAAAAAAAAAAAAAAAAAAAAAAAAAAAAABGdXK6rzfPbFopS1MsVvrY/VG/dS7hkko2u71iOTm1FenPypyLMRS3uZbOlXcm3KPifc8ZjSiqXLtsjZucKJ+5VAsdBQUVroobdbqWOmpadiRxRRt4WsanYiIdgAAAAAAAAADEIM8fPqhVadpbNm01rjuPdfWdvE/h4OH/vuee/WDHrPVZC/MquisFssErYpK+sqWsiXddk3VeSEw1U6PVi1r1zdPm1JkUNoorHGlNV2u4y0TXTLJ3zHPjVFdy57KYBfNM59DcBzDHMQwrJLvY6yva5JaimW91bFVURJI4Zd0mRO3Zewx1NSqiaZmOU4jN54oiLzi02nbZ0alFHFEU7eG/bw3nrfP7Q2nxfUzT7NaGC5YlmVou9LVSOihmpKpkjZHt901FReaofOQ6oad4lZZMjybNLRbLXFUdyPrKmqayJs2+3Vq5V24t/Eai6N6a612nDvXNilhhrcjttwdXW+ivVubZaeqp5l5o+OPlG9qdux+XyLV61aFyU2caWz0NyueS1lRWx2mzsvjqJVk3jdHTyd7Ix3469hreaqJrtb6bRO88UU+XOZjlaYzuz0qIrveecx7cd72vyppt1vhtk/WLSuPD26gv1AsTcafJ1LbqtazuZX77cKSb7b8l5H1bNX9Lr1itZnFpz6x1eP25FWruUVYx1PAidvE/fZDUzAcGyR2lGF6Y5jp5cLw+uyxl3n6+xsgo46TjV33eFO9jXZebTJ890vlxumyWrs+lbqrFLTk9FdauwW2jaxtxo2Rr1iRQN2bMu/wCAvJTbgomZnitHKen0Xvt/VPTbzZXiaqKI3vVfyjitbNs8POeeOV9pMVy/F84s0OQ4ff6G82yo36qro5myxP25Ls5OR65Bei7apXSZXmFrwCtwnG79Wxy2uzVkHc0sbWs4XuWnTlDu7fknb2l6K6lMUzFukT7x2/nW04TOJmIm9uf86becAAKAAAAAA8vJsbtOXWOrx690zZ6OsYrJGr2p5FTyKik50Fya7TOyfTq+1Dqiqwu4pb4qh/uqiBW8THfuRUT9xWiKafSQ3rpA5zc7PGkVJaYo7bXo1eUlWuzkcvx8IFrAAAAAAAAIh0kP5QaVf1wg9BxbyIdJD+UGlX9cIPQcBbwAAAAAAAAAAAPJynKbHhliqsjyOvjpKGkbxPkevavia1PG5V5InjVQOXIcgtGLWepv19rY6SipGK+SR67foRPKqryRPGpL7PZL7rPdIMszCmnt+K0snWWq0P719Vt2TTp/c1T8xzGr9q/eKfPdRKCWhsFK9ZbDj0zdnKm/Koqm+N6onKNeSclLCiI1Ea1ERETZETxAddtstzGoxlBTo1qbIiRN5J/YfvqdQfzKD5NDsADr+p1B/MoPk0HqdQfzKD5NDsADr+p1B/MoPk0HqdQfzKD5NDsADr+p1B/MoPk0HqdQfzKD5NDsADr+p1B/MoPk0HqdQfzKD5NDsADr+p1B/MoPk0POv+IY7k1qns12tkElPO1WrwsRrmr5Wr4l+M9kASCyZHe9H7rBh+dVUlXjlS9I7Ven8+pVV5Qzr4vicpXmua9qPY5HNcm6Ki8lQ6N8sdqyS11FlvVFHVUdSxWSRyN3RU8vxL8ZKLferxoTc4cdy2qmrsHq5Oqtt3k759teq8oahfxOfJ6+PZALMD5Y9kjGyRuRzXJujkXdFTyofQAAAAAAAAAAAAAAAAAAAAAAAAAAAAAAAAAAAAAAAAAmesOEXq4rbtQMKSNckxh61EEEnJlbF+HC5f8Ah3VPj2KYAMbwHO7NqFj0N+tCvicqrHU0sycM1LKnuo5G+JUMkJfm+ll7Zf11A0uvSWe/IxEqqNyf6nc0RU2bMn4K/wBJOflPvEdcLNX1jMZzyjkxTJUf1fcNcitbUbf7yJ/YrF8W6ooFNB8xyRzMSSKRr2O5o5q7ov7z6AAAAAAAAAAAAAAAAAAAAAAAOOoqaeliWeqnjhjb2vkcjWp+9SU5Frgl4r5cR0aoosmyBHdXLMqOSioF391O/ZOX/DuBkup+okOC2qKGhgSuv1zkSmtdA3m6eZezfbsanbucWken0mC2KonutR3Vfr5Otfd6rbZZZ1+ymzf3HW0+0rfYa52XZndXX/KapiJJVyp3lMi81jhb2I1F5IvaUMAAAAAAAAARDpIfyg0q/rhB6Di3kQ6SH8oNKv64Qeg4C3gAAAAAAAAADxsty6xYTZZ79kFY2CmhTkna6R3ia1PGqryJ3jmIXvU+902oeplEtPbqRyy2LHpU3bB5J6hF91IqJ7ld0Tkp59razP8AXy9U2SxpU0eJxNS20rucTZVVN5XJ2K7xcy2Km6bETtganS4r0gtSbznuS2PpO3XFbfYrtV0tHaqWx008cccTeJN3v75dzJ7f0kXadYBjtFl1syTN8oqKVrpEs9va+eqRPdTcCKiIiJzUouEadXnG7fm9LW1dNI/JLnWVlKse+0bJWcLUd8aL27EWyDE9bcVy2yWTSuPGaq+U1sdDUvvHWNpuqcio5WOam/EieIzrrq09XT0dP6ZiP80UTO85jMZ7XbfE8NcVatO8T5RaZpjaPPHeylZl0ncZxay2a52zD8nyWqu8aTOt1noknqaNmyK5Zm7pw8O/P9B3q7pJ6e22KnqK5K+GGtoFraSR0He1D2p31OzyyovJW+Uwm46P62YTTUF/0hrMYnyGvhWO/RXhZUplc5E4nwqxOLku+yL8R91nR4zi5WeisVTfbZHTWPe629WRq50t1evE50m6co2u32RO1O0tXM2m+PFO0Xx4tutotMTzq8PaOejimab/ANPvPhtfpebxMcqfFjd6uT9LfEMZutFbX4VltdGsMc94qqSg44bGyTZWLWLv3m6Lvy35Ip39VOk7jul1wtNM7CMqyKkulG2vdcLNRJPT0sDnIiPlcqpwpzRTC8p0e6RMt0ukWL3fEvU3PaeCLKZKtsnXUT42cCupERNn7tVy7P7FMQyrA+mZcaTJMcw7HsCbj1RTRW2ilu08za51PGibqiM71OJW77Ly5mvFp01UX2vefKIi8bcpnE71RebYbzTRaJiczaPK8RmMb/VeNotEZvEzdM+6R+A6dWK4X2+R3B7KCGCVIIIeKWdZduFsbd++ds5FVDuWbXnDb1kcmMwwV8NVHYm39XSw8LFgX8BF392nkJJH0es+1EyKhzHO/U+hp6ezxMhtPfL1Vyj2b1jvEreFP+562UdHrUGvraW52G/22lqaelZTO4kciSN4u+au3i23M6KdSmaqNW1826RN64i889qKp/wy551KaopqoibYvjNrUTOPKaojurmmGqmO6r4s7Lsdhq4qJsskKpVR8D92Lz5eQm1m6XWP3fP3YTJplnFDRpXS0CX+qtyMtqyR+6XreLs+PYz3S3T2swLHbnY55KZW1VVJPCkKKjWNc1E2X9+5i/sL5DUWCKw1t1pliW7VFZNwq7/YyeJP6RbU8NcTRmLUe8zTFXtEzPorTVXVR4otN6/SIiqafO82hyWLpNYvfNQJMIXE8loqLrX09NkNVR8FsqpW/gRy781Xxcj2dZdbbdo7S2+SfEb/AJHV3KRWQUVmgbLMu3a5Uc5qbJ+kn9n0h1qqMlpMPyivxr2ObLW93W+el6z1Tlc1d42SIqcCIi9qpzO30sNEcv1jtVlZidssNzktk7pJaO8VlRSwyIu3NJIO/RU8nYYatWpGhp1UfVNVN/8AtvTeZjlP1RbpETzu2ovOrqRXGIibdL2m0X5xt6zMXc916W+MW/E7Jf6TT/Mbndb6svU47RUCSXKNkS7SSPj4tka1e1dzsZT0rMWsCWVbTheT5F6qwdfOlspmOW3Iiojm1CPc1WKirz7exSfY/oT0hsDx3Hcnwuow1mYWaOooFs1TLO+1NpJX78TZf9sr02Tt5KeBq50Q9RsxuVpyr1HxLLb3PSubePVa4VdDDHI5yLwwtptuJic03dzOnW8FccGfFntFqrRFr3i8U3m+LzETPKdOmJp8U54Z9+Le9ozEbRbOJ6xGxkGuOF1WaWTCad1TJUX61vutJUtYiwKxrtnMV2/u08gwfUfB9dLdk1pobbPU0FqrZLRXMrYERkz0TmrN990+PykxvvR5zpsGPXLBprFYbhj1h7gpKVj5H08VQ6RFfs5e+VnDxJuvMomimltx0xTI46yelfHeLglbE2DfvFViI/ff+luprNGnE1zfERNu88ePan3m88lIvOnp1TvMRM+dsxnO83jys8K31l46P1yjsd7qJ7jp5VycFvuD93y2VzncoZl5q6HnyevPddizQTw1MLKinlbJFI1HMe1d0ci9iopxXG30V2oZ7bcqWOppalixyxSN4mvavaioSPQmuqrbkeY6fRTvktFirnJbWSOVzqeJV/2SKvNUTxbmCVlAAAAAAAAAAAAAAAAAAAAAAAAAAAAAAAAAAAAAAAAAAA8HLcFxLOre+2ZXYqa4QPTb7o3Z6focmzk/cp7wAib9JdTdOpO6tH847poEXhbYb45z6WCPyROb3yO/Sp+s6QN/xiRYdUNLb5Y6aJdpLtE1JqV/lVqN3cWs+JIopm8E0bXtXxOTdAMTxPVvTrN6burHMrop2/iyP6p//wBr9lMsiminYkkErJGL2OY5FRf3oYPk+h+l2XVLq+74lSLWOarUqYd45G/o4VRP+xh8nRwrbbJ12HavZhZWs9xSx1aOp/0K1U32AtYIp6gdKLHnI225hi18oo/wKymlSpd/zJsh8LqL0hLMi+qOj7Lzw9vcFW2Pi/RxKBbgROPpBZlSbLkugmT2lvjc6ojmRPj71Dkf0pMQp3K2uxy/wKi7L/qT3f3IBaARb22+kcSf65Le4FTt3tUy/wBzTiTpk6CPk7njyWufUIm7oG2uoWRieJXN4N03AtwIt7bXSiX+B+rlR+i1zN/vQ/W9KDF6jdLfi2QVLkTdESkc3f8AtQC0AiT9fdQKxOLHuj1k1xjXskWriianxrxIEzrpF3pU9TtL6SzI7+f1CSbfp4VAtpxT1NNSs6ypqI4W/jSPRqf2qRlcR6TGRuc2/ag49ZqR67tZaqeRJ2IviVzuSqfVP0aKesk6zMtTsvyRrl3dDW1idUnxIjUTZAMuzDXDS3BWtXIcupGPfybHT71D1XxJtGi7L+kw/wBmzULLpO5tN9Jrm6CVfuV3uapHSKnl4U74zjENHNM8EV0mL4fQUcknN8nCr3uXxqquVeZmLGMjajGNRrU7ERNkAjMWh+TZzP3frRmc90ge7idYqB7oqBvk8jl/tKpj+MY/ilviteO2mmoKaFiMayFiJyTyr2r+9T1AAAAAAAAAAAAAiHSQ/lBpV/XCD0HFvIh0kP5QaVf1wg9BwFvAAAAAdWsulst6tSvuNLTK/wByk0zWb/o3U6/rlxz3/tvzqP6yD5bguOam9JGeyZrSyXCgt9pZJTU7pXNZG5zea96qdpl/tVdDfyNb84k+sCkrkuO7cr/bfncf1mudm6f+jUWrN50a1DmfiN8tc6QxS1srXU1Zxe5WN7d05oUP2q2hzeaYY1due3dEn1mmdx/0XFVrVrjetQ9SK5mL4d3R1VBZbe9VqnxN7HLIu6Ii8vj5gbaaVV1Fc9c85uFtrIKulnjifFNBIj2PRduaOTkpczW/o44Dj2lmo+UafYnDJFabNTxwUzZHq923LfdV5qu5sgB8ySRwxulle1jGIrnOcuyIidqqpMcc6RmjGZX2/WDE8spLnecchlkrKdkT2O2ZvxIx72o1/YvuVUznLrPPkOLXexUszYprhQz00b3b8LXPYrUVdue268zV3AtO9S8pu+N4RkukEOI27A6KroJb+s0b23frY+rRadGd81F24l49+0UxxcUXzEY9pzfbExEW3m+GtNNHBxVTbP6XiLb5nF9o3l3NPekhqPmersmOS5hpzDZI2SVr7akNWlyZSJzReNfuTn7dqIX/AE61WwLVe3Vd1wK/MulNQVDqSoekT41jlb2tVHoikGxvHdR77f7NpnVaIvxe0YpWpMzKXVET46yKJe9axre/Tj258XlMeumCa7WnpTVt9xGyZfR45W1dNJLNTV8Edllga37oj4Pdq9fKPh4mqmiiubXpnPeOHM84iYmqOGc3pmbzE2cvxFddGpqVRG0xjla1WIti+KcxjNt4uttF0rdBLjm6adUeewyX11Q6kSBKWfgWZO1iScHAq8l/CObE+lDodm+YyYFjObxVl7jkkiWDuWdjVexVRzUkcxGKqKi9ikX9rnqLX5VbdRZK2426KHJuvjxGndElBT0ycSLUOXbiV7l77t/CME0k0515xDUdktZprmc9HR3Osqf/AIjcaR1qSN73q11OxqdY167ptxLtzUtpRExT8zE2mZ9r949Lz0iXTrUUxRXXpztMRTfp4r43naLTiM32ls5QdK/QK5agM0vo8/gkySSqWjZSdzTIjpkRVViSKzgVdkXxnsY10gdJMuzO5af4/lsdVfLSjlqqfueVjU4fdcMjmox+39FVJZa9M83v2D4Y+uwlllurb5U1VfE9YnT0cTkka16yInfL3yLyXxki0l0M1PxnVay2nKcf1SrqGwV1Q+nukt2pPUdVcj1R/VNTrVYvEibKq8xpUVTw6erivhni6cVs2ziInFrzxXxODVpopomuicXxHO16oz5xET2vtOG6fr+xHuSnrvVqLqKuV8EMnC7Z72pu5E5eI8us1n0xt9zslmrMvooq3IpZIbbCvFxTujTd6Jy5bJ5djX2zdGLUC2ZbbM2nzzLayNLrVVEuOz1ca22mjexUarG7bnVxDQXUOTIH6h5pi3X3GguM1Pb7f1zVSOib2SNXxOenJTk09TUq4Zqi0Wpmd8X4ImI6z4pntFM3zCmpai9s/Vbvbjt5fTHnMxbeFnsXSr0HyXNn6eWbOoqi+xyywLT9yTtar4/dokisRi7fEpkb9adMGYtJmj8vo0ssVetsfVrxcCVKO4Vj7N99+RAbL0d9T0y+i1KvV8rWPW4VL4sYpeqZb6Kld/s1dy4nSeVd+06U2h+ps8Ffh0+JMdjlXVVFzjY2ZqIyqR27HKnlVTbRqnU0/FFqseX4Zn/TM2zvFt5srrTGlqTEZpzt6xEes23jaZnERdtfcckslqs6X+4V8cNA5jXpM7fZWuTdF/eeVftTMJxmgr7ler2yCC2UiV1UvVvc5kCpujuFqKq8vIiqYvqjhOQZbohNhVtWop7pU26Gm46d6NlhejERXMcvLdF7CM23RHVzSCyZNVY/fsp1Aqqy3QtYt2q4nVqbMRHQ0zlTha5F7Fdy5DWqnTqqinaJmI53tTMx97Z25bo0Zmvg4ucRM8rXqiJ+18b89l70t1v0x1opa2r04yVt1jt8iRVKLTywujcqbonDI1q9hnZrD0RtPdScTu99v2c27J4I741ssTMgqoJqmlVvLq1WFEaqL2mzxrNuGmq1rxt7x/v6opqmaqo5ROPaAhWktztdv1a1GSvudJTOWsTZs07WOXn27KpdTWDE9HtPdR9ZtQrjmFibXVENSkbHLI5uzd/iVCq7Y31y457/ANt+dR/WPXLjnv8A2351H9ZNvaq6G/ka35xJ9Y9qrob+RrfnEn1gUn1y457/ANt+dR/WPXLjnv8A2351H9ZNvaq6G/ka35xJ9Y9qrob+RrfnEn1gUn1y457/ANt+dR/WPXLjnv8A2351H9ZNvaq6G/ka35xJ9Y9qrob+RrfnEn1gUn1y457/ANt+dR/WPXLjnv8A2351H9ZNvaq6G/ka35xJ9Y9qrob+RrfnEn1gUn1y457/ANt+dR/WPXLjnv8A2351H9ZNvaq6G/ka35xJ9Y9qrob+RrfnEn1gVKjuVuuCOWgr6apRnuupla/b9OynZNetNcPsWnPSHveNYfTyUNrqbZFNJTJI5zFfw9vNVNhQAAAAAAAAAAAAAAAAAAAAAAAAAAAAAAAAAAAAAD8VEXkqbnysMS9sTP8A7UPsAca09OvbBH/9qEVwqGBelDqG3ueLb1Itn+7T8T9BbjWbAcruUvTo1OxN7Y+44cetU7V277iWPdeYGyqU8CdkEf8A9qH6kUSdkbU/ch9gD8RETkiH6AAAAAAAAAAAAAAAAAAAAAiHSQ/lBpV/XCD0HFvIh0kP5QaVf1wg9BwFvAAAAARS3+FLc/M0XoFrIpb/AApbn5mi9AtYAAARPTf7/wDn3/DH/wCC2ET03+//AJ9/wx/+C2Aeff75bsastbf7tK6OjoIX1E7mtVyoxqbrsic1X4iYYV0qtINQMWvWX41cLtNQ2FiSVjJLVPHOjV7FbE5vE7f4kObpH5Hn9mwynt2muBSZXebpVNiZSJUJAxsbVRzlfIvJqKm6cyGUlx6Tt5uuYxzaCpilfdLRTUtBFBeo5UmjYq9Y1s7U4Y37dir2KYxqcU6lMTmItGJ+q0TPnHDN8dJ54TXTNM6cxtM+LymbR5Z5z+WV7wPpI6W6i2a4XywXC4xQWuRkdVHX26WlmjV67N+5yIjtl8uxlNx1JxG01UlFX3B0U0TYnuasTuyRN2f2mrmlnR31VhxTPKHJbdfLc/K4KSCBtyyFlfXQIz3apUN5Jt+D5D2KDoj3zF7Xk+OWbKMou1JkNNSQrW3a89dVwK1vf9S9ebNvEW+JmvTrmKIvinveZpmaovHSefp3V0803qnr2xxU2+0zjfF8Ws2Lu2pWH2OO6yXS59Qllpm1dWjo1RWxubxIqJ+Eqp4kMMxvpEaW6n4bdr3jGSV1FBRv7mklqKOSmnie73L0Y9EcrfjRNiY2PorZDgdDk1Njt/vmQLUJS1tEuQ3Pup888TOcKuX3LFXlzOrfsH6QWomLZHmVw03tuM5Wy3JarXZWXOOaOpaqoizOlbybsm+yKKInUqqonMf5cXmN53vt2+ufCiqrUpiJojPK+YvwxNpjlF832/Duo/R+zSsr73lOEZZqpR5hlNnqkfVtoqR0EFJC5N42JvycvCqbqnjPczXpIaUaf5zQaeZLeaqK73BGqzqqOSWCLiXZOtlanDHuqfhKhjGgehl30lvEElS1s6TWdjK+ufKjpqirVyOcjvGqN5oi+RDy8xxzWTFM8vVJhGmVpy+xZpVMq6y4V9dHGltdvzasTucqIiIqbeNTbVvTq6VMeK/1WxmLxi+17XvPXO5pcNVOrVmIicX3tjNucxf6Y8ovZ7remJom/UWbSxtwvS5BBKsT4vUao6tNk34us4eHh/pb7Ht2LpL6SZHn3sbWm91Mt36t0nEtHI2m5JureuVODiT8Xfc+lw/I6XU+65fVw06WuTGG0HXMVqKszXK5yI3tRNiJ6cWvV7LkTEaHTi3WjGaS4VNwpsoSuY50s++7Wup/dc1REVfGhSmY+dGlOfDef80RM+kXqtvVtGT4iKqKOPT52t58PFbG+fDM/hzMrDjfSj0nynP5dNbfU3qG8xumaiVdonggesXu+CV7UY79y8zM26l4g+ipbilxd3PWzSQQvWJ2znsXZydhqzgujWvNdrbFn+YWC9UcNsdUNf3VksdVQVvWJwo+GmRN4UTt2Xy7Hu4d0R75ieTUecR5Nk9bXOra2aotlbeOtt8LJXbtWOLsRf7is1VfLpqtnw357znG+1vLn0i+rEUa000TenP68/5e63ya96XR5JYcTdkSLc8kSZbdCkTl6zql2fuu3e7L5T1INWMGqLZbbvFeN6W7XB1rpH9W7v6lFVFb8XNq8/iNeNKujnqLbLmzPc0t9OmQVF/lm6hKpsjKGhaqozqlTs402VUQxirh6RlgisOHX7Qqkpsas2USV8mQR3+J7nQPfJs5IU75F2enL4jpmminwzPivjpnlfa8XiL7TN7YNK0xVVXiKYjPWbVcUxG9omIt2tM72jY/HukXpfk+oFVprarjXrdqRzo1kloJY6WV7e1sc6pwPX4kXylONEdN+jZqJjWrNj9WcJzK62C13l9xpry/NGJQxo9XPSRKHbi2Ti24Te1E2RETxFZoiNKiq95nfl9t48pRXMRq1U0Zp5ff3w/SJ6NffZ1H/bE/vLYRPRr77Oo/7Yn95mLYAAAAAAAAAAAAAils8KO6eZ4/QLWRS2eFHdPM8foFrAAAAAAAAAAAAAAAAAAAAAAAAAAAAAAAAAAAAAAAAAGq2n1suLf9IHqlcnUUyUi4zaGpMre8Ver7NzYjUHGZ8ywm9YxSXCegqLjRTU8FVA9WPhlc1UY9FTs2XZT+QekN46WuddKGXo4XbLa6GWgq2Q364pvHPUW+kds13H2983x+MD+znbzQ/Tr2+jjt1BTW+F73MpomQtc9d3KjUREVV8a8jsAAAAAAAAAAAAAAAAAAAAAAAiHSQ/lBpV/XCD0HFvIh0kP5QaVf1wg9BwFvAAAAARS3+FLc/M0XoFrIpb/ClufmaL0C1gAABE9N/v8A+ff8Mf8A4LYRTEeCw9IzKKC4yJFLeqJlZR8fJJWI5EVG+VS1gAAAAAAAAAAB8va17VY9qOa5NlRexUOGioKK3Q9z0FLFTxbq7gjajU3Xx7IdgDuAAAHDVUdJXRdTWU0c0e+/DI1HJv8AvOYAfjWtY1GtRERE2RE8SH6AAIno199nUf8AbE/vLU97I2OkkcjWtRVVVXZETykX0KYlzzfUHKKN3Hb6i6vpoZU9zKrF5uavjQC1AAAAAAAAAAAAAIpbPCjunmeP0C1kUtnhR3TzPH6BawAAAAAAAAAAAAAAAAAAAAAAAAAAAAADzckvUGN4/cb/AFW3U26lkqX7rt3rGqq/3EIw3HekBqRYo83ZrQ+x012kfUUdDHa4pGxU6r9z75ea8jMukzfH2nS2ot0W6vyCrgsqNTtVJ3cK/wDYoGJWOPGMXtOOxbcFto4aVNvIxiN/8ASj2Jtf/wA4qf6GhHsTa/8A5xU/0NCW4ARH2Jtf/wA4qf6GhHsTa/8A5xU/0NCW4ARH2Jtf/wA4qf6GhHsTa/8A5xU/0NCW4ARH2Jtf/wA4qf6GhMZt3RZ1EtOdXTUy3a1viya9U8VLXV3qRCqyRRpsxqJ4vj8psoAIj7E2v/5xU/0NCPYm1/8Azip/oaEtwAiPsTa//nFT/Q0I9ibX/wDOKn+hoS3ACI+xNr/+cVP9DQj2Jtf/AM4qf6GhLcAIj7E2v/5xU/0NCPYm1/8Azip/oaEtwAiPsTa//nFT/Q0I9ibX/wDOKn+hoS3ADXFF1rwjVzEcVuOrK5NBdnLPW0clujh4aVqqjno5vPtNjiI4rw5p0lslyNO+bhdvZYk8iOm2lX9/aW4AAAAAAAAARDpIfyg0q/rhB6Di3kQ6SH8oNKv64Qeg4C3gAAAAIpb/AApbn5mi9AtZFLf4Utz8zRegWsAAAMS1B02seoNDFHXOkpLhSO6yiuFOvDNTv8Soqdqf0V5GAO0i13h2jpekZWujamzVls8Ku2+NfGWwARH2Jtf/AM4qf6GhHsTa/wD5xU/0NCW4ARH2Jtf/AM4qf6GhHsTa/wD5xU/0NCW4ARH2Jtf/AM4qf6GhHsTa/wD5xU/0NCW4ARH2Jtf/AM4qf6GhMJ1ltPSG0s0+r81pdeZK6WjlgjSCS0Qta5JJGsXn8XFubSEY6X33iL3+00X+ZjA6sGlev08EUydImoTrI2vVPUaHkqpup9+xNr/+cVP9DQlmt38X036lnoodgCI+xNr/APnFT/Q0I9ibX/8AOKn+hoS3ACI+xNr/APnFT/Q0I9ibX/8AOKn+hoS3ACI+xNr/APnFT/Q0I9ibX/8AOKn+hoS3ACJs0P1QvDlpM414ud0tMmyT0MFvip+tb5FkavEm/wARW7BYLTjFqp7JZKKOlo6ZiMjjYn/dV8a/GeiAAAAAAAAAAAAAACKWzwo7p5nj9AtZFLZ4Ud08zx+gWsAAAAAAAAAAAAAAAAAAAAAAAAAAAAAAiWq++Va16f4KqdbRRd03SuanNGOiaixb/pVFLaRLTRXZXrzneZp90oaKCmtNGvajJY0VJdvjXkW0AAAAAAAAAAAAAAAAAAAAAAHBW1UNDRzVlRIkcUMbpHuXsRETc5yZ9I2+T2bSG/R0EvBcLjD3DRfHM9dkT+8DxOi5TTXDDblnldC6Ouym5z1MyOTmrY3ujYq/8qFnMc07scWOYNY7PHEkawUMPWJ/+4rEV/8A/JVMjAAAAAAAAAEQ6SH8oNKv64Qeg4t5EOkh/KDSr+uEHoOAt4AAAACKW/wpbn5mi9AtZFLf4Utz8zRegWsAAAAAAAAAAAAAAEY6X33iL3+00X+ZjLORjpffeIvf7TRf5mMCv27+L6b9Sz0UOwde3fxfTfqWeih2AAAAAAAAAAAAAAAAAAAAAAAAAIpbPCjunmeP0C1kUtnhR3TzPH6BawAAAAAAAAAAAAAAAAAAAAAAAAAAAHm5LeI8ex6536Xbgt1HNVO37NmMV3/g9Ik/Sbv09l0sqaSk3dNeauntaMTtc2Z6Nd/2VQPnox2d1Dpp6uy7q/J7hU3viXtVs7kVqf8AY+NaNbMu03v9kxbBtIrlnd1vUU06QUlfFSpCyLbdXOkTZe0o+J2GDFsZteOUyIkVtpY6Zm3Zs1qIT/K6Gvl6QWE10VFO+lhtlwbLO1irGxVamyOd2Iqk0U8epFMzaM/amZ/OGulw+KaovifycGj+tuV55X3206iaTV+ntZZGRyuZX3GGoZJG5u/Gj2IiIiJ5Si0OZYhdLbUXm2ZVZ6u30iqlRVQV0UkMKp28b2uVrf3qQjVOyZBWXvOp6S1109B1VM+tjiYqLV0rY/ukbF/CVU35ISKKfTmuwDL5NJtNr7ZcMvFA2z1FrW0TQLVXJzk75Yl58O26K/sMdDVn4iZi1p252+qYiZ6RNoiLb1TZnXEaWpEVTPDMxeekTFMzbvF5qn/DG7c+1Z3g99jnmseZWO4x03Od9JcYZki/4la5eH956F0vVmslvfdr1dqKgoY0RX1NVOyKJqL2Kr3KiJ/aac6iaR2LTHGcr9i/T6PH+6cIilmW20D3tkqkkaqqrE929NuxOa7HUwXWmrzDSTJIdfIZ8xxylhZDBUNwyop0bPwoiRSUi99KjV77iTlyNdSqmmiZpnMdfO33na9r4KImaIrnaappi3aKZv8AfNr7Nx5cwxKGyNyabKbRHZ3oituDq6JKZyL2KkvFwr/acdfnGFWu2U16ueYWSkt9Ym9NVz3CGOGZPKx7nI137lNL6G1Yza9GcPvmd4Xcr3p1T3Geavt1LaJWRvY5qpE9tB7tsaO27xexU3MJ1hsat06wq6w42+hxCbILhVWSkueNzXWOht7406lr6RnfRp5Gr2Fq6eGJtMTaYjy872tM709Y74W+Hp+dMROMVT52iZx2xaekv6CVmd4PbrXBe7hmVjpbdVf7CsmuMLIJf+F6u4XfuU69ZqZpxb0idX6gY3TJOxJIlmusDOsavY5u7+afGho1kt1opej9ieN1mA08UNdcZ0oK+44nPXUjFRUTdtEnfQMdv3u/YZJhmhGIZhpZg9ZqDpNb7tdoL86nmkltr49qZH8to1XdkW3Yi9iF6NGa9Sadoiumn0qm1/OJ5TbGdrOTU+IjSppmYmb01VY28PfaYnMRMXzFuUtzKnNsNo6ujt9ZltlgqrijXUcElfE2SpRexY2q7d6L4ttzjuOe4LaLm2y3bNLDRXByojaSouMMcyqvZsxzkd/2NB+kdi1+sOttwpau722y0MkNLHjFQmFT3aa3xMYifcZ4+UKou3aZ5Dphg+ptq1C1Hu2nkl8vlI23RWu73G2yRVckkcbWvkia7mnNN+RTQinX06dSJxM56xHFTT5Xji8UXxMS21ao0qa+L6ojHed/O0xEzFo2hupDW0dTJJFT1cMr4tkkayRHKzdN03ROw/Kyto7dSyVtwq4aWnhbxSTTSIxjE8quXkiGjOUam6s6Za7V9qxG41NNDd3W9/qTLjE1WlxXqmtdw1ad7Btz7fIXjpT6o4dhGl1Nbc+oLlM3Knx0XclDQvq5HO7172qxnNU2RUKVTE6calE7zwxfrjpfGfzu14Yp1vlVcoiqbdJi847Z8+St0Oa4bc7ZPe7bltlq7dSrtPVwV8UkMS/0no5Wt/epxU+cYvdbNWXrGshtF5gomOc99JcIpI0VE32c9qq1v7zS/T/UrRGlwXVKx6X6Z3GltSdXWPs1VYJokWF6IxJu53d9IiOTmieQw/AcWz+q0t1Jp8JpaCjhraGjq6eahxia3UskSSbytWkd3z3cG+6J2pyI8VUVzbhiKYnPeYjPbN79O8Tal4+Zp6f9VfDja1r39OfS8cphvPjWq2P3ixPyS73Gy2q2xuSN1W6808tOkir7hZUXhR3xbmTWPJsbyeB1VjeQW27QMdwukoauOdrV8iqxVRFNEej5g+NZ/h2o1kvCUGQWVbP10WOxYXPZqSKqa1ytmY2T3ciqidnjRDa/o4ad4np3pXZKDGMQpcfdU0kUtXBDCsaumVqcTnovPi3OmrR+XEzV0iY9ev327K54YqpnnMT7Xx72z37KiRHXT/5q1B0905hevWLc2X6ZiL7uCnVUVF+LdeZbiI4rw5n0lsnvj04kwmhitML/ABf6w3rHIn9i7mCy2oiNRERNkTkiH6AAAAAAAAAAIh0kP5QaVf1wg9BxbyIdJD+UGlX9cIPQcBbwAAAAEUt/hS3PzNF6BayKW/wpbn5mi9AtYAAAAAAAAAAAAAAIx0vvvEXv9pov8zGWcjHS++8Re/2mi/zMYFft38X036lnoodg69u/i+m/Us9FDsAAAAAAAAAAAAAAAAAAAAAAAAARS2eFHdPM8foFrIpbPCjunmeP0C1gAAAAAAAAAAAAAAAAAAAAAAAAAAAIlqsq5TrXp9hbE62jo31NyuUfkRrEWLf/AJkLaRLTP/5s14zvOWd/R0MMNih35oyWJfum3xqBbQCX9I6tudHphWJRVVRSUlRPHBdKuncrZKahdv10rXJzarW8907DLW1fk0TX09Pu00tP5tcUdVQBo1UyaWW7T+XFMD1oyK6acVN3pW3y7JcZJnW6JyL1qd2e6airzVfwew+8t1Vt+j+D4xWaLZzT5Rj1DfWwUdXkl4dBSSsciuczuxUVZkReXPsN6Yid5xeI/KJvHLM45VRecc+erUmIxF5z+Uzv1xmOU4zu3iBprbukFUZrU1+W5RdqXHaZuHztqHUVwWa3rK6bhSSGZE2euy7cW3acuC6Y2rSi8PumI5JltXU3vFJKyWO7XqWqidKqqrXMR3uN+XNPEZa9f93v8yMcMT6zxzEe1F+14w3imKopmmd7/aaaZ+9X2luKDS7S24XTNdPLvld4yq90eoVijSWrtr6h7YoKGKVHK6NnZK1Wov3Tx9hXOjLkt51QgyDWC5JXU9Heqp9LaaaZ69WtHEqcEqM7EVy78/iOnV0KtHUr05/BmZ5Z+nzvPFGL24c7w54rqmimu0eKbb52vPLlFp737LqDSWmz7pB+qFbb1xek9ZLM9fCl/S8OWuREmTaFIPxPF5OZhufZbQz9JajveE1MyPbkdNQ1j3ZbN3SzvtpGutnuUZ5HeQjS0p1dXT04/FMx3jFM3mP/ALudtud19efk1alG80W8pvfnF+nK+7+hhi+omouPaY45NkuRNrJYY1RrKeip1nqZ3r2MjjTm93xIT3pS17YMJt9Fd77WWXGbhcYae+3KkkWJ9PRu3416xvONNvw07DXpaXE6nFp7VR6mXWXSC0X+mip8gfWPme2ne1VnVtYvfIjX8us/BMaKatWJtMRaYjPnF79N4t1z632tNr4vbrvt1nGekZbZaTax2DWK3VtysGP5NamUEyQyR3y1PoZHKqb7sa/3SfGZpUW231dRT1dVRQzTUrlfBI9iOdG5U23aq9imkNBc8Qv2PTaR2jVS+3PCLrk1PbrFXJdJO66mJzOKSOCr91KiO35+LsOtklpw/SnAM/07mvuQVdCuRx01sW8ZPNTNbJ1SKrH1vuo2/wDktqTbiqpptbhtvmZim/LFuKet9tpuvOjNMzTVMTa0zbpM48++1u9m8yWy3JcVu6UMCVzouoWoRidYse+/Dxdu2/PY7RoDp1eaqu0GqsfzC/19lxBMoko7vX0t9kq3UVCjWq3grl75Wq7ZOL4z283020uy3RFtXheq+aXq02K9Q0truNHepo/uMkjGujWVOc6Ijl75fKWmiqdadCN4mmP80Uzm17W4ojO+e16acTqRRxYmq9vSZiLddrz0iY3iW8YNKM/1YvfRe1Wbh+ITWu6WZlko29Rk+Rvhn4W77rArkXrpFTxdqrsbhYtfEyXHLbkCUslN6oUsdT1MibOZxNRdl/tIimKqPmUTeL26Zz+0lcTp1xRVvMRPpMRP6u9W1lNbqOavq5Ejgp2LJI5fE1E3VSQdF2lqazDbnmdzhVlwyG61M0ir2ujZI5sS7/8ACe50ir0+0aSXyCmm6qsusXqbSOTtSaXdG7GT6dWNuN4JYbKkaMfS26nZLy7ZerTjX97tyqGRgAAAAAAAAAARDpIfyg0q/rhB6Di3kQ6SH8oNKv64Qeg4C3gAAAAIpb/ClufmaL0C1kUt/hS3PzNF6BawAAAA8fLcux7BrBU5PlNyioLbRoizTyLs1u67IYInSY0dc1HNydFRyIqL1a80AqYJb7ZfR/8AKZPk1Htl9H/ymT5NQKkCW+2X0f8AymT5NR7ZfR/8pk+TUCpAlvtl9H/ymT5NR7ZfR/8AKZPk1AqRpx01elLphi9pveimW1FXa77M2lraJ0sK9TVQsnarnNd2ckapdfbL6P8A5TJ8mpp9/pFsS0u6UGDWiuwu+0rcrsdW1I5ZI9lkpXLs9m/kTdXAbddHzpEYJ0hrJXXnTpKye0WqZKLuyeFY2zSNanFw79qJ5Ssms3R6zTQbQfSPHtNbRkMLfUykY2qljh266dUTjevlVV/uKP7ZfR/8pk+TUCpAlvtl9H/ymT5NR7ZfR/8AKZPk1AqQJb7ZfR/8pk+TUe2X0f8AymT5NQKkCW+2X0f/ACmT5NR7ZfR/8pk+TUCpAlcnSd0Xh6tanLooGySMia+RqtbxuXZqb/GpU2ua9qPau7XJui+VAP0AAAAAAAAAAAABFLZ4Ud08zx+gWsils8KO6eZ4/QLWAAAAAAAAAAAAAAAAAAAAAAAAAAAHm5JdW2PHbpenKiJQUc1Tz/oMV3/gm3RitXc+mjcleipLldbPfH79u8y+P+w++k5fKq0aV1dJbl4qy7VNPQRRp2vbJIjX7f8AKqlDxaxU2MY5bcfo2okNvpmQMRPIiAeqcVVS01bTS0dbTxVEEzFZJFKxHMe1eSoqLyVF8inKBumJmJvDw6TBcJoLRUY/Q4dZKe11e61FFFb4mQTb9vHGjeF370OKfTzAKqyw43VYPYJrTTOV8NBJbYXU8bvK2NW8KL8aIZCBOd/5bZEY2/l3htwbCmW1tnbiFkSgYzqm0qUEXUtZvvwozh2RN+e23aektrtiq1Vt1MvBH1TfuLeTPxU5dnxdh2gTMzO4wvUPTp2W4xX2XGLtFi9wuELaSS50tDHJMlNv30XPbvVTdO3lvuezheJWrBcVtmI2SPgorXTtp4U25qieNf0rue2BEzETHW1/S9vzn3OUR0/X/wBOolotTY1iS2UiMWXr1akLdlk/H22918faea3A8HZdn39mG2NLnK7jfWpb4evc7yrJw8Sr+890EbTcdW42u23ihltl3t9NW0c7eCWnqImyRyN8jmuRUVP0nRjw3EIbC7FocWtDLK5Fa63NookplRe1Fi4eH/sewCLRnuPFpMJw2ggoaWhxKzU8Nsf1lFHFQRMbTP8Axo0RuzF+NNjkuuJYrfaaWjveM2q4QTyJLLFVUccrJH/jORyKir8anrAmcxaSMbPIZiGJx2eXHo8XtLbXOm0tElFGkD08jo9uFf3ofdBi2M2u1sslsx22UlujcjmUkFJGyFqp2KjEThReXkPUBN5vc6dnh3vBcJyWrhuGRYfZLpVUyosM1bQRTyR7dnC57VVP3HtMYyJjY42NYxqbNa1NkRPIiH0CIxFoJzN5RHXbhyzP9PtMUVeKouKX97U8bKRd13+LmW3s5IRLFnJmHSXye7Ss4osNoIKGkl8SuqGbyI1fiVOZbgAAAAAAAAAAAEQ6SH8oNKv64Qeg4t5EOkh/KDSr+uEHoOAt4AAAACKW/wAKW5+ZovQLWRS3+FLc/M0XoFrAAACNdLeGGo0Ru0NREyWN9RSo5j27tcnWt7UKFa8Nw9bZRquKWfnTx/8A9jF+Kn9EwDpZfeVun7TS/wCM0q9p/iuj/Z4/RQDo+szD/wAlLP8AMYvsj1mYf+Sln+YxfZPZAHjeszD/AMlLP8xi+yPWZh/5KWf5jF9k9kAeN6zMP/JSz/MYvsj1mYf+Sln+YxfZPZAHjeszD/yUs/zGL7ITDcQRd0xWzov7DF9k9kAeN6zMP/JSz/MYvsj1mYf+Sln+YxfZPZAHjeszD/yUs/zGL7I9ZmH/AJKWf5jF9k9kAeN6zMP/ACUs/wAxi+yPWZh/5KWf5jF9k9kAeN6zMP8AyUs/zGL7I9ZmH/kpZ/mMX2T2QBAelziuLUmh12npsatcUrKygVr2UcbXNXumPmiohdqD+A036lnooR7pg/eJu/7ZQf5mMsNB/Aab9Sz0UA7AAAAAAAAAAAAACKWzwo7p5nj9AtZFLZ4Ud08zx+gWsAAAAAAAAAAAAAAAAAAAAAAAAAAAIlqq5cq1r09w6H7pBa5p7pcYu1FjVm0e/wDzIW0iWmaJluvGeZ23voLXEzG2eRskTuJyp8fMtoAAAAAAAAAAAAAAAAAAAAAAOvca6ntdBUXGrfww00TpZHeRrU3U7BNekRfUsmk16hbKsc13jS007kXmks+7G7fHzA8Tov0FXLh91y26sTu6/Xmrn4/xqdJFSL/+JZTG9N7AuL4Fj+PvbtJQ26nhl8qvRiI5V+NV3MkAAAAAAAAAAAARDpIfyg0q/rhB6Di3kQ6SH8oNKv64Qeg4C3gAAAAIpb/ClufmaL0C1kUt/hS3PzNF6BawAAAjvSy+8rdP2ml/xmlXtP8AFdH+zx+ihKOll95W6ftNL/jNKvaf4ro/2eP0UA7ZimpudwadYjU5HJSPqpkc2npYG/7yeReGNq/ErlTcyswPWrC7pnWCz2uySRtuFLUQ19M2T3MkkLuNGL/xKm37zPWm1E3mYjnMReYjnMRzm2zXRimdSIq2YbpzlPSegyinptYcNxZLHc2OdT1FhlmdLRORN0bUdYu3NFRN28t9zKrH0gtH8mzG44BYc2o6zILUx76qiYyRFYjPdbOVqNdt8SqT2y5/0iNVqx2LVGj9Xp9QxQSRXG53aoZK2pVU2TuZI+ac915+JUMaxjE8/wAgyO2ac3HRqbGqLG6x9TLliyRLHcWIq96zh7/d+/PiLXrqq4KYxabfveeUdJ8VW0WteeeqrgpmvMzi/aekR1nbHhp3y+cb6TGpOZ63MwWyX/TejtaVTkktla+qS69zsXZ6tcn3FXr2om5d63WnS23yWSGtzS3xS5HWOt9rYrl4qqoaqo5jU235Ki815GvdJhOoFZfrXpHT6FpaqCyZA69LmL5I1pZYkc93DHt916xeNE5rtyPIxHo86iTZDY82zHG1WuxrJpm2qNZGr1FtkVznSqnZuqqi+U6dP5NXBRfw5m/OYx12m8xFpzvOYibb1acRTNUz49rRtE2qn1jEZjlNszZsd7YHR5c7ptM25zROySs3SGhRkiucqb7pxcPCi8l5Kp1KXpLaJVmoa6VQZ1TrlCVC0ncC08zVWVE3VqPVnAvL+kQbGI8tv+S3TB7Bo1UpS1t7krHZqj4uohc3fk5P9pvyROXiU8aDTvXnK9dKC73vHctt9HZq976hz30vqLUM4OBHU6NTrk7UXvl8SnN8NV82jSrrj6qYmeV700zeN7RE1TFpvM2veI2ym8fNvjhvERvmJqi3e8UxPaZtmWz1Dr/pFctQKjS6izOmkyale6OWi6mVOFzU3VONW8Cr/wAx6D9YdNI8fuOVPy+hS02msdb62qVV4IahFRFjdy333VDTu36K6pUOrstlvVq1YrbOl2fUx19JV0bbUqdqKvLrlbvy23M2rtFtSp5bxiLsO4savtbNXTtbI1E69qbseqeVVGnVNfw9Ncxauab+vhmY9ImrF8zTvm0NWr5fxE0THgifPFqucdZinNsRVN9rtpbxmuL2DFpc1u94hp7JDB3S+sciqxItt+LZE3Xl8RheH9JfQ/PbJecjxXPqSst2PxJPcp1hmiSCNUVUcqPYiryRexFPO1GxLJ7j0dZcXttqqZrzHa4420tM5qTdY1vYxXd7xeTfka6aWaY601+KXimu2D5bTuoFpq1Y8qlpXVFxWFFXuaDqERqNXs7/AMo1J4dXXop2ojwz13zjfEbRbffkaM8elo1VRmq146be285nbni7azDtetI8+sUOS4lm1HX26etbb45WsexVqHdkfC5qO3X9Gws+vWkd/wBQKzS205rR1GT0COWegRkiK3bbdEereBVTdOSKqkJvWG6ka04fNHTaS12lNTU3iiR8sEsPqgxkaKi1LVZ3nLxePY6enun+q8V4xfSm/wCmk9OzC70t1nzqV8fVXaJr3KjU4funWOR6b78t2nRp0UV6nDVNo/PGZvtERvaczExEZiU1WjS44nOb9pvOLbz0vGMX2mG4IAMRFumD94m7/tlB/mYyw0H8Bpv1LPRQj3TB+8Td/wBsoP8AMxlhoP4DTfqWeigHYAAAAAAAAAAAAARS2eFHdPM8foFrIpbPCjunmeP0C1gAAAAAAAAAAAAAAAAAAAAAAAAD5e3jY5iOVvEipunah9ADX6y6Iaz4ZcL6uF6l2mnoLzc5bkrKmke6VHv7eJU7ew9b1idJX4VrD8ykLWAIp6xOkr8K1h+ZSD1idJX4VrD8ykLWAIp6xOkr8K1h+ZSD1idJX4VrD8ykLWAIp6xOkr8K1h+ZSD1idJX4VrD8ykLWAIp6xOkr8K1h+ZSD1idJX4VrD8ykLWAIp6xOkr8K1h+ZSGF2ip6S901Sv2nXskWBjbLR09Uk/cj+/wCtTfbb4jZ8imIeFHnfmi3+gA9YnSV+Faw/MpB6xOkr8K1h+ZSFrAEU9YnSV+Faw/MpB6xOkr8K1h+ZSFrAEU9YnSV+Faw/MpB6xOkr8K1h+ZSFrAEU9YnSV+Faw/MpDqVGiWqeZXW0R6o6h0FzsNrrIritFR0743yVES7xqqry2RS7AAAAAAAAAAAAAAAEQ6SH8oNKv64Qeg4t5EOkh/KDSr+uEHoOAt4AAAACKW/wpbn5mi9AtZFLf4Utz8zRegWsAAAI70svvK3T9ppf8ZpV7T/FdH+zx+ihKOll95W6ftNL/jNKvaf4ro/2eP0UA7YAAA096R+ompLM5znS7TzKKu33atsVNXU07Xd7Q07G7zvZ+K9U7FPCvOr+ueMW6+WzDMVuuaUEWL299Vd33dkD7U9YV4puF3N7l5uXbyF9OiNSmKonebR+s32iInF5xeJjeG9ehNE2vtETPa/BbznxbRnHeL7oX2927G7RV327z9TRUMSzTycKrwsTtXZDnoaymulDBX0j+sp6qNssblTbia5N0XZfiU0b6R01BmuA3R2oWtd5whbNi9NNaYqa7NpW3d8kSOkfIxec+ztk2TynFp3fqzTXGZrfpbrPes6tlfibK+vrayvS4epVVs1qIxW/7LvVVeBefIimia4qiN4mY3xi8Z6bc9uaNTT4KKa453v7UziN5m1W28ziIvGd5LXZbVZYpIbVQxUscr1ke2NNkc5e1Tumk1HfqvBsfy6y6ca13nMrbUY/Hdqm7VdySuktlcsjWrGyVvKNOHn1a80Pysv1wxfHsrh0+1su+VvuFmpa+qqX3JtT6mVrpUbwxub/ALNFT8BefMrXTNE8FMX8MW/KI7Ric7bdcRp6M6vDb8VVv/HPn44xvvdu0DUN2qGSZFqnprBTZjXMt1ginhv8NPJ3tXWth3dHK38LZOaJ5TAsQze8O6Tdur8byHLquyXWrrFe+ry2Kro+HhXhR1C3v4E37Ed2F5piOHOKomY9JtHpViY89rs4pqnT+ZblE/nePOOGb++2W/INWKTW6yyWm1WddXLW6+Oyt9JNSeqcfdKx9YiJGrN+LbxbbE/bqdqVmGR0tNZc0uFLaMTzx1DdZ2yfw5ksi9XAjvG1vYqCnTmqqmmOcxHpamZnyjiiPO0bzDPTqnUpqqpjMRGOszNURH+n2m/KW84NEajPskz7JF041Wze/ae4iysuVTbsrpL2yldc5IpdmwrKvKNG9nAvN2xtL0ecjvuUaV2u55DUyVVS18tOypkaqOqIY3q2ORfKrmoi7+PfcmnTmrS+byx7TffpN4nE52nm11qJ0tSdOeUzHtPLrHeMROJypIAM1UW6YP3ibv8AtlB/mYyw0H8Bpv1LPRQj3TB+8Td/2yg/zMZYaD+A036lnooB2AAAAAAAAAAAAAEUtnhR3TzPH6BayKWzwo7p5nj9AtYAAAAAAAAAAAAAAAAAAAAAAAAAAAAAAAAAAAAAAAAAimIeFHnfmi3+gWsimIeFHnfmi3+gBawAAAAAAAAAAAAAAAAAAAAAAACIdJD+UGlX9cIPQcW8iHSQ/lBpV/XCD0HAW8AAAABFLf4Utz8zRegWsilv8KW5+ZovQLWAAAEd6WX3lbp+00v+M0q9p/iuj/Z4/RQlHSy+8rdP2ml/xmlXtP8AFdH+zx+igHbAAHkz4njNVcqi8VNhoZK6rg7mnqHQtWSSLbbgc7tVu3iPyPEsYiiqYIrDQtjrImwVDUhaiSxtTZrXeVETlseuBHhi0JvP89P2j2hNtXdAtNtYMZfY8lxGy1VTDRupLdVVVE2V1E1dtur37ETbsQ9LTjRvTrS/G3Y3ieH2e2wVULI69KOkbE2rc1nCrnonbv8AGZuB+GaeU79/NM1TVERPLb7fsmt40FwOPT+/4HgePWrFochVHVTqGjaxsj+JFVzmptxKqJt+89fEdHtNsKtM9psGFWWijruB1clPSNYlVI3bZ708a7pvzMzBPFP8/Ly7ImZmIjpMzHnNrz54h4dJg2HUFY64UWM22CpfO6qdKynajlmcmyv3290qctzyrNo5pVj17q8lsen1iobrXP6yprIKJjJZXb77ucibqu5mII53JmaotKR5T0XNF77Wtvtv06xu331K+K4Lc2W5nX9Y1/EruJNl3VfGZ9Q4Jh1uo3UNHjVtihfVd3SMZTtRr6nt61U293vz37T3gIxFoJqmd2KZHpTprl9nbj+UYNZbpbWTrVNpaqkZJGkqrur0aqdqr4zJKKipLbRw2+gpo6emp42xRRRtRrWMRNkaiJ2IiHOBGLxHPKJzN5AABFumD94m7/tlB/mYyw0H8Bpv1LPRQj3TB+8Td/2yg/zMZYaD+A036lnooB2AAAAAAAAAAAAAEUtnhR3TzPH6BayKWzwo7p5nj9AtYAAAAAAAAAAAAAAAAAAAAAAAAAAAAAAAAAAAAAAAAAimIeFHnfmi3+gWsimIeFHnfmi3+gBawAAAAAAAAAAAAAAAAAAAAAAACIdJD+UGlX9cIPQcW8iHSQ/lBpV/XCD0HAW8AAAABFLf4Utz8zRegWsilv8AClufmaL0C1gAABGelzNHTaG3mqmVWxQTU0kjkRV4WpK1VXkd63dJnQSK3Ukb9UrIjmwRoqdY7l3qfEVGsoqO4U76OvpIamCRNnxTRo9jk+NF5KeP7H2BfkRYPo2H7IGH+2c0C+FOyfKO+oe2c0C+FOyfKO+ozD2PsC/IiwfRsP2R7H2BfkRYPo2H7IGH+2c0C+FOyfKO+oe2c0C+FOyfKO+ozD2PsC/IiwfRsP2R7H2BfkRYPo2H7IGH+2c0C+FOyfKO+oe2c0C+FOyfKO+ozD2PsC/IiwfRsP2R7H2BfkRYPo2H7IGH+2c0C+FOyfKO+o+JelD0fYGLJNqvYY2J2udMqJ/aqGZ+x9gX5EWD6Nh+yR3paYThVHobep6XD7HFIlRRoj2W+Jrk3qI+xUaBmXtnNAvhTsnyjvqHtnNAvhTsnyjvqMpoMAwN1DTuXCLBusTF/i2HyJ/ROf2PsC/IiwfRsP2QMP8AbOaBfCnZPlHfUPbOaBfCnZPlHfUZh7H2BfkRYPo2H7I9j7AvyIsH0bD9kDD/AGzmgXwp2T5R31D2zmgXwp2T5R31GYex9gX5EWD6Nh+yPY+wL8iLB9Gw/ZAw/wBs5oF8Kdk+Ud9Q9s5oF8Kdk+Ud9RmHsfYF+RFg+jYfsj2PsC/IiwfRsP2QNeek7rrpDmGkFwx/GM9tlyuVXW0LYKWnc50ki90sXZE28iKbPUCKlDToqbL1TP7kPJjwPBoZGyw4ZYmPYvE1zbdCitXyovDyPcRERNkA/QAAAAAAAAAAAAEUtnhR3TzPH6BayKWzwo7p5nj9AtYAAAAAAAAAAAAAAAAAAAAAAAAAAAAAAAAAAAAAAAAHi5nk9PheKXXLKuiqKuC0UklZLDTt4pHMY1XO4U8a7IppTi/Ts6PzdXL9qHQ5FLW+uSht1DbrZDGq1ctSibOj4fEqLyU3sqKeCrp5aWqibLDMxY5GOTdHNVNlRU8iofzW0i6CGN2Dp9ZDlNXNQVOKWdfVm2U6vbzrJV4kjY3x9WvaniA/pHbK1blbaW4LTyU61MLJuqkTZ8fE1F4V+NN9jtDsAAAAAAAAAAAAAAAAAAAAAAAIh0kP5QaVf1wg9BxbyIdJD+UGlX9cIPQcBbwAAAAEUt/hS3PzNF6BayKW/wAKW5+ZovQLWAAAAAAAAAAAAAACMdL77xF7/aaL/MxlnIx0vvvEXv8AaaL/ADMYFft38X036lnoodg69u/i+m/Us9FDsAAAAAAAAAAAAAAAAAAAAAAAAARS2eFHdPM8foFrIpbPCjunmeP0C1gAAAAAAAAAAAAAAAAAAAAAAAAAAAAAAAAAAAAAA46ipp6SB9TVzxwwxpxPkkcjWtTyqq8kPIy7Msewe0SXrI7gymgZya3tkld+Kxva53xIS+lsOaa51LbpmcU+P4W13FS2Zr9qi4N5bSTuTsjcn4HaByV2e5TrDW1GN6Szy26yQSOp7hkr2K3mnumUyKm6uTxP7D1Kno84U3HKO2Wh9XQXe3qs1Pe45V7s693N0j3fhcS9pSrbbaCz0EFrtdHFS0lMxI4YYm8LWNRNkREOyBJMZ1PyDELxFgmsdPHS1b3dXb79Fyo7g3xb7/7N6ePi7VK01zXtR7HI5rk3RUXdFQ8zJMZsWXWmayZFbYa2jnTZ0cibpv4lTyKnlJLHPmegDuquM9flGBo7val+8tda2r4n+ORidibdiAW4HQsV+s+S2uC9WK4QVtHUtR8csL0c1d07F27FTxp2od8AAAAAAAAAAAAAAAAAAABEOkh/KDSr+uEHoOLeRDpIfyg0q/rhB6DgLeAAAAAilv8AClufmaL0C1kUt/hS3PzNF6BawAAAAAAAAAAAAAARjpffeIvf7TRf5mMs5qH0zekxpTYrBftGclvEtryNyUlZTRzxKjKmFs7Fc5juzkiKBtpbv4vpv1LPRQ7BLtCukBp3r3aa246a109wtlokbRvrHRKxkkqNTiRu/bsVEAAAAAAAAAAAAAAAAAAAAAAAACKWzwo7p5nj9AtZFLZ4Ud08zx+gWsAAAAAAAAAAAAAAAAAAAAAAAAAAAAAAAAAAfiqiJuoH6YHqHqza8Mnhx+10sl6yev72jtVN3z1VdtnSqn+zZ/SUx/JtT8hy+7SYPozBHV1TXdXcL7JstJbm77KrF7JZE5pwoZTp7pfYsCjlrGOkuF7rE3rrpU99PMq81RFXm1m/Y1OQGO4jpNcbnfGagasV3qvfdt6SgRd6K2t5bcEfYsidiv8AGVUAAAAB8vY2Rqse1HNcmyoqboqeQ+gBHr7pvk2nFfNl+i0LHxvd1ldjL5EZT1ab98sKryievbv4zM9PtS8f1DoXPt7pKW40ycNbbqhvBUUz05Kjmrz235I7sUy4nuoWklNlFZHlWL3F+P5XRqj6a4wJ3sip+BOzslb8SgUIExwvVudLyzAtTaJliyZO9gc5USmuPi3hf2K5e1Wp2FOAAAAAAAAAAAAAAAAAEQ6SH8oNKv64Qeg4t5EOkh/KDSr+uEHoOAt4AAAACKW/wpbn5mi9AtZFLf4Utz8zRegWsAAAAAAAAAAAAAAGh/8ApPejtT61WbHrlR00Nvu1tk6uG6O59bG5e+gVPFsiq7c2x1C1cteH1MWOWejlvmUVve0trpU4nNVex8yp/s4/6SmPWTSDJcpuPrk1iv6XN8jFdBZ4Go2molXxbp7tUTxnZ8DPw8a3/NfRab239O/nh539qR8ZPw//ACP/AFLxa+2+b9rdM9HB0RdNbZpPodYcOtNqipYaaJHLOzZFrHKibzOTxKv/AILORJ+O6m6LzTXTGbhLlOJtcrpLLIxO6aOPtV8L+1//AAFMwrPMZ1AtKXfGrg2diLwzQu72anf42SM7WOTyKZfFfL+dV8n6b4329ctvgfnf3aj+8fXbN7b89seXZkIAMHWAAAAAAAAAAAAAAAAAAAAAIpbPCjunmeP0C1kUtnhR3TzPH6BawAAAAAAAAAAAAAAAAAAAAAAAAAAAAAAAYln+pWPafUcb7istXcKpeCittK3jqap/4rG/+VA96+36zYza573f7lBQUNK3jmnnfwsYnxkhfPmOv7upo1rcawJzkSSVUWOturEVN2t8cbF7Ucnah3bBpxlGolxgzLWdsLWRPSW345C5XU1MnJWul3929fG1d0RSvRRRwxshhjbHHG1GsY1NkaidiIniQDzcbxmx4jaYLJj1uio6SBqI1jG7K5dvdOX8Jy+NVPUAAAAAAAAAAAADHs2wPGtQLStpyOgbMje+gnb3s1O/8eN/axeSc0JxQ5dmWjFfFYNR1ku+Kyu6uhyKNu8lP2bMqWp7lqJyR/jLQcFbQ0dypJaC4UsVTTTtVkkUrUc16eRUUD9o6ykuNJFXUNRHPTzsSSKWN3E17V7FRTmIvV4jmGitbNfNOW1F6xSVyy1mOvVXSUqrtxSUzl5qq/iLyQo+EZ5jOoVnS84zcWVEbXdXPGvKSnlT3Ub2rzRyLyUDIQAAAAAAAAAAAAAiHSQ/lBpV/XCD0HFvIh0kP5QaVf1wg9BwFvAAAAARS3+FLc/M0XoFrIpb/ClufmaL0C1gAAAAAAAAADxsry/H8Js8t8yS4x0lLHyRXLze5exrU7VVQPXkkZEx0kj0YxiK5znLsiInjUj961NyXUevlxLRRWdS13VV2TSM4qelTfvupReUr05psdWO15zrxL3TkcNVjGCqqLBb0VY625M8s3PeNq+LZeaFesljtGOWyCz2O3wUVHTtRkcULEa1Nk235dq8ua9qgY5p9phj+n1M+SkR9bdapN6251Pf1E7l5r3y80bvz4U5IZiAAJhmukc7rnJm+mNezH8maivejGIlNX+NWTM7N3dnH2lPAE7wLVuK/XH1n5jbfW9lkKKklBK77nUbdr6d6/7RvxlEMUz/AE1xjUa2to75SqyogcklLWwLwVFPInuXNenPbfntvspgtuz7L9J7hDjWrTX11llckdDk8Ma8CeRtUie4d5FTtAsoOKmqaesp46ukmZNDK1Hsexd2uavNFRTlAAAAAAAAAAAAAAAAAAACKWzwo7p5nj9AtZFLZ4Ud08zx+gWsAAAAAAAAAAAAAAAAAAAAAAAAAAAAOKqqqahppKysnZDBC1XySPXZrUTxqpHrhlea6xXCSwad9fZMXjcsddkMrFbJUp2KylRfH5XL4uwD18z1cmW9v0/0yo2X3KERO6Nt1prc1ex8705c/EifvO7p7pJSYxWS5Vk9xkyDK61EWpuVSm/Vpy2jib2Ma3sRU5qnaZDhWCY3gNobaMeoWxN3V80zu+lnkX3T3uXmqqpkIAAAAAAAAAAAAAAAAAAACYZppNVsu7870vrYrJkzWp1se21JcETsZM1OSf8AEiblPAE+081ZpcpqX4zk1tkx/KqRNqm2VPe9Zsn+0iVfdMXtTx7FBMQ1C0xsGoVExtY6WgulKvWUN1pF4KmkkTse13j28i7oYjj2omT4BcabDNYWKrJXtp7dkUbHLT1a9jWyrt3kip2quybgV0HyyRkrGyRPa9jk3a5q7oqfEp9AAAAAAAAACIdJD+UGlX9cIPQcW8iHSQ/lBpV/XCD0HAW8AAAABFLf4Utz8zRegWs1xtuVTu6bt1xPudnVNx2GfrPwt+r32NjgAAAAAAD4lligjdNNI2ONibuc5URETyqqkgvWpmSaj3CqxDRdGrFC91PcMjla7uelXsc2L8eRPEvNNwMj1D1btuH1EWO2Wgmv+UVve0tpo04pE/8A3JF7Gsb2r49jyMU0kuF2vcWfauVrLxfI+dHQt3WitrV7Wsb2PX43Iu3iPTseKYJodjFxym8XBz3wROq7tfK5Fknm2RVc9ypuqfoaYji3TW6NGaX6hxrHdSoam4XKVsNLE6hqY0levYiOfGjef6SaInUq4KMz0RVMUU8VWIXBERqI1qIiJyRE8R+gEJAAAAAA61xttBd6KW3XOjhqqadqtkilYjmuRfiU7IAis+J5rolUy3bT1lTf8Sc5ZKjHnKrpqNO1zqZy8137dlXkUjCM9xjUKzsvWM3FlRGveyxL3skEie6Y9q80VF5GRExzbSSpkui5xpjcWWDJ49nORE2pK9E2+5zsTxL5UTcCnAnOBauU98uK4fmVCuP5XTs3kop12ZUInLrIXLyc1V7E33KMAAAAAAAAAAAAAAAABFLZ4Ud08zx+gWsils8KO6eZ4/QLWAAAAAAAAAAAAAAAAAAAAwW/a3aYY3d57Fd8qpoq2mROuiajn8G/ZuqIqGdGvmg2I4xe7znNVd7FSVk63l6dZMzidtuvLmBnXtidIPyuh+Sf9Q9sTpB+V0PyT/qMl9jjA/yTtvyCD2OMD/JO2/IIBjXtidIPyuh+Sf8AUdO8dJ7RayW6W51uYRJFFsnKJ+6uVdmtTl2qvIzH2OMD/JO2/IIde4aUacXSilt9dhtslgmTZzVgT9y/pQCG6l6W6odJqzwyZTm1y0/wXvqqW32mRUuFTE1OKNzpETbZe3ZP7DGdCdbaXFX5Nptp3fco1XhxukbU0kNxgdTXB0nEqPiSWRjWvY3h5cvGZBqxiuvuldLTVel+bOlsVFKr4X18bqhtva7k7uiNvfTRIi7NRvYvMzLQzAsqr31+p+oOo1nyu+3el7igmstP1FBTQonLaNe+SXn3267kROpNNUUzaLTi2Zn8Npzzt0xeL8pvPBaLxebx5WvmJ25XznljnHiY10s8rvWK3C/3Po75Vaa6OoSktVrmrIHzXSfdUeyNWps3h8aryKlpNqi7UuzzTXPFq7GL3Qv6u4WWuka+elVfc8Tm8lRU5psYjetEMujwqKjw/LqKhyq23Ga4Wy4VNO6SnZ1i7qySNObk2Mk0e08ynD6OuvOoOQUd6yy9SNfcqyhgWGmcjeTGxxrzaiIaU2mvUvGIiLedqdvOePivtam1suafm2onrv8A6v8A+bW61X5WwO7dKTJ7fnrsapdBMlrcdjuUdtkyaOshSlY93a7q1Ti2TmegvSbeubttMOmN7lw5ahKRcxbNH3Eku3NFZtx7Iu6b9nI9ybRq4y22pt/q9EndF5Zc9+rXZGJvuz9PPtMPZ0ftToMiTGqbPrQzS1arut9oWid6oK5ebmdf2cKuVy/vOLQq+ImNOmuIvaL36zFPFe08vFa282vNt+nX4Yp1J0+9vLiqta/OY4b35TVa02e3bukdX3TUN+M0Wk+QS4u2o7lZlrJGOo3ycPFyYice3am/YePQ9KbJKrP4can0GyWmxqouL7fFlD6yFaVytaqrJ1aJx8PI5m6Ma22LJZLZhGptnt2AvcsrbdLQOfXRv4VRGpL2cG+y7HsY5oplNPiFgs+UZTRVlzt9xkrrhUUtO6OKdHbpwsavue9VP3mtE6sU01zEYiLxO8zM03mbdI47WmMcO6le9URzva20RFNVrX5zPDe983taHi0HS2tFVqPLiFViDqWwtq1oocideKZ0c0vYiJTovWpuvLsPUqukTeqfVWHAmaQX6Wwy1fcK5S2pi7kbMibq1Y9uPyf2kqd0NspxzUm4Zrilr0wqqBKiWuokr7PM+5pLw7s3m4uHfi257HXp9KOnRHDar9X5tp/UNjvEd1qrPFbHtnRHvb1jUmXvVVGpyL6MV6lGlxYqxxX2m803748Vpi0bX721aKpq1eC1vw552q68vpvfaZnla1vj6R2DyQTIk0CV8N+Wwrb+7Yu6Vej0b1vV78XDz37DCavpf1dFqGzD6nR28RWmW7pZ2XqS507EdKruFHpTr91Vnx7H1B0NsHZc5sz9SbO3MpsiW9Jeuof1zYlejup7dvKm+3jOW59Eiz33IHaiX6ot9dnPq5FcIrzJC/eCkiduynY3fZOXJV2NtOKI1KJr2v4vK1FrbTOeLnFu+EV2qq1KdP6ZtwzOJj6r33/w8p/N12dMGrTUSmw2q0dvFNaqu7+o8N5luVO3ik4laj+5l+68C7duxSdY9XKzS+goW4/glzzO+XKZI6az26Vkcz28938T+SIm3/cn0vRIstxyOn1GvlRQVudMv8dzfenQu4m0kbl4aZjd9k73ZN9vEZ7rFp5mmVRUOQaY5NQ2LLLU7akqrhTrPTLGu/Ex7E5ruY1Xp0NP+u/i54x5RPPaI8tl/DOpVVTtabRPXO9s25xme9k9zHpW5rjVNjVTa+jZl159cT+5VbFVwxLSVfFt1D+NOa8lXdOXI9TJ+k5e7DdqexW7RPI7vXxRx1F3ip6iJqWuB2yLJI5U2dsq9ic+R7sGk+dXSx4imaZtTXG+WS7sutwqYoFZDOqIqcETPwE5p2mB5dhGtuS6t36LTjKrPYbRUsjhuqXS3vmdUw7pukLk9y74xXNVOpRp02mqeLrw4pmYi+/Dfn9Vo3ZVRHyoriZ2i+181Wv04uGInpeZxyjINVOk7cdOq+1utWlddkVkuUMcq3WK701MyPidsqJHKvE9U8fCZHXdInBbZPX0twq6alnoqSCrZDUVsUUlQkq7I1jXKiqu5KNUeh5kWe5LboY7xitXilHFGjYbvQSzXCkkau69zStVEY3fZdl+MyG/dDfB8zuE2QZzabNer4ygpqSirpoH8dK6F26ObspWqa5p1LR14ets2xtfbpGZvMl54tP04ul8X72329IZHqB0n8V08oL3W3Wx3CZ1mttLcUhiVqyVKT+5YxPKnjXsPWsuvVovNuulwbj9dB6lWKC+yRvc3d0crFekaf0kRNjEL90Ya3JNS6rOLtk8ElEmMpZKOg6ldmz8HCs0nicidqJ4jHsz6PXSBpGTRaT6m4pbKW4WCCzXRt2tUlQ+Tq2KzjjVvud0Ve02mvTopqqq5zjtEROZ85i/PE087t9GiieGa5/DTfvM8M1e0cUed+kMp1T6Tl209sNjyazaS3HIrdd6BK+WVl2pqNaVFRF4FSXZXrsv4Ji2vGLVur+I0GWXvVK94zjtyo4mUFitD0SSuqZURyRTOVF4l3TZFbty3MQvvRc1L1lxmxU+QXrEqqlo6X1LroLza5ZHQ9VsxZaLhVOqVyJvz8exdb5R2TSnT7GafJbraVpcZfCidfTLLLKyNOFG08ac1k7Nttyuro3vTFXDVFWJ7Zjym2Ji8b2mb7MvmxTw1acXiaZ4onrjHXrE2nra2JYpj1RqJ0fMattdf5Jb/hjKdiVqyy7VVnaiJ90c5eTo0TtROe5nUHSP0cqYI6iHMIXRyNRzXdU/mi/uPBpMYy/XGaG76gQT2TD92y02Po/7pXM5Ki1S+NipsvAUOHTLT+niZBDiFsZHG1GsakCbIidiE1TxTMqUU8FMU3vZjvtidIPyuh+Sf9Rxv6QensVbc6SpvFFSpQW71ShdVVsUC1UaouyMa9UXddjKfY3wP8k7b8ghLMz6IWleoWV3jKMyxOy3aWqtqUNt7ogcrqJW78KpsqJsiqVi/H2tPvyt/LLTtFt7x7c/5u8vL+mTZ7ItkpMXwaoyK43G3x3WtpEutNRut9K/3EjnSqiP32Xk3yHTzrpkXbHaa03jC9CcizayXhYaeG52y4U7YkrHrstP32+6tXkq9himo3QXrb5Nj97xaTCK28UFohs1d657ZLVUzoot+rdAxiorF5rvv2lSi0Auz9NMTwpKywWipx+5QXCdtno3Q0b1Y7iVI41Xdu/xm8U6VWpaZtTxR/lmq0+kU5jF7852ZfG16mlEz8NTFU8E4nbitExbb8V4zi07Xy9+39IfA2UcLMullxy8IxO7LXVIr5aSTxxuc1NlVPKh2PbE6QfldD8k/wCoyutwTDrjVSVtdjdBPPKvE+R8KK5y+VVOH2OMD/JO2/IIZTN5u0iLRaZuxr2xOkH5XQ/JP+omGr+puF59l2l9sxK6uuNTDlcM0jIoX95GjHbuVduSdhdPY4wP8k7b8gh2rdhWJWiqbW2zHqGmnb7mSOFEcn6FIS9oAAAABqpbP/6hN3/qtD/hm1ZqNltl1EtvTSrcwwWhpbiklghgqIJV4VY3g23RVM1xG76yzWiz1F4qJusmuVUySFY1R7dnrwtcv4qeIiZt9vvf9k28M1dGwgNadPJc1vORMoLjnF7Wof3YlZSTUr2s6tHrtwvVNuJOW3xGQYtk2pOD4DbJrPgd+zirrZ51qXT1zIZYESRUaio9OabIhpFGJnpb1vf9lb+Lht+i7HjZZmGO4TaJb1klyipKaNOXEu75F/FY3tcvPsQgt/1q1Xgv9NVO02udimWB0b6CoqW1DZGb79ajWJyVPKZVplp9Z8ympdRMyyN+U3KJeOlpp37wW1+/4Mf4L/Eqr4jt1P7Pr0vhafi5nFW0Zvz36bb8+XN5Oj/a+nr/AB9fwFNM8VOZnFuVrZzOcxy57w+IrXnWu0/deQtqMZwXf7jbmuVtZck/GlVOTYnJ2N5KV6y2O0Y5bILPY7fDRUVMxI4oYm7Na1DuoiImyJsiH6ee9dgmt/Aumd5SRGq1YV3RybovJe3cneptutMGnGnNRDbqKGR15s/fsgY1fc+JUQu1xttBd6OS33OkjqaaVNnxSJu1yfGdWtxqwXGjpLfXWmmnpqCSOWmiezdsT2e4c3yKniL6FXyqrz/VTV6UkY1adTlETHu1Wrsnyioyyo1Nl1qudBdqK8ep8WBpVsSlmha7hTeD3aq5E4uLs5nUyaizfJcjy3U616/Zhb6ax3GlhprLbqyNbb3zE42OTZd9l3358lNkqrRfSquzpmplXgtqlyljUY26Oh3nRETbt327E8h3rVppgNis9TYbRilvpLfVzuqp6dkfeSSuXdXuTxrvzMPhaKtCmn5k3mLelpovvM34opq32mq2d0fFROtVXOnNuLHpaq3lwzNMRbeIvNpw17TULUmXMrXofbMmr5L1TVqVtZXSf7WotboVcj0d2cpFRp5Fm6R89dfsS0ily68w5xbayuhv9PUUkjGytZE9zFWVWox+3er3qlT01tVgh1dyLKch1Mw695BVf/D7TQ2ypibUUVA3n1MjEcrnO4k7diuXLGsfvFRT1V0s9JUz0rnPgkkiRXRuc3hVUXtTdF2NtOeCmiqYibxefO1qc52i3FbEze3VaNSqK66Zticc+U8XSc1VTMX2iKY2iIac6favaqZ7qPpvdI83qqfDKN9Xb7o1XI1blXxoqu61V5Kxqc0PRpKPOUvtTq/Sa95jXUy5XLQwWFtXG61SU/GiI1qInNOfbubRU2meAUdvhtNJiVtho6d0r4oWQojWOkRUkVPjciqin1atOcFsdjpcatGL0FLa6KTrqeljj2jjfvvxInl3LU1xE0TMfTb/AMoqq94vEduivxd9emrgxxcWOX4uHMZxem/W09mrlXmmYUuRz6qwayXKovMeQ+orcESpb3H3Nxozj7n/ANpx7LxcfZyPUw29XubJqzUm6dIavbcprjVW71m1E7XUsTEdws4KdPuiPRE3415cy91OkukVuzSXV6sw+y02Rwwqkt7lYjJGRonNXPVeFE235qdHHNPdB8hy+bVzE7Ji90v8rHU8t6t8sc71RU2VquY5W7/9ylMxwxERaYpmMZtfGOsVc5na+O81zeb33n38+luVt+fJJuj50ocgy/JWae5fg1dTOfUVjKe9yXanqWz9XIqNasUaq9m6eXsNnyfYh0f9F8ByefNMN05s9pvlT1nW11PEqSP6xd389/GvNSgmmpXTXETEZ5/z/aPLnOenROn4b45fz/efNi2e6b4zqHb2Ut7pVbU0zutoq6FeGeklTsexyeNPj5GBW3Pcv0muEeM6stfX2WRyR2/JoWqrefJsdS3tR/8AS7CzHWuVtoLvQzW26UkVVS1DFZLFK3ia9q9qKhk0clLVU1bTx1dHURTwSt4o5Ino5rk8qKnJTlNdsiobjode2U+nGR1Vxpqxz3MxqV6zNpEVN/uaJzYxPIpVdJq6qumKNuVwvclxq6qZ8lRxpt3O9e2JE8SN8h6Op/Z1en8JT8ZMxwzyzfn9sb8+TyNL+2NPV+Pq/s+KZ4qbzM4tbHffOY3jnvDNAAec9cAAAAAAAAAAEUtnhR3TzPH6BayKWzwo7p5nj9AtYAAAAAAAAAAAAAAAAAAACJ9HL+Ms489Sf3qWwxXCNPbTg092ntksj3XeqWqm417HL5P7QMqAAAAAfjmte1WPajmuTZUVN0VCRX7TDIMFvM+b6NydU+deO4Y9I/akq+zd0Sdkci+N3jK8AMN071Rx7UOllZR9ZRXWjd1ddbKpOCop3ptv3q81bv2OTkpmRgOoOlFDltVHklir32LKaVE7mulOnN23Y2Vv+8YnkU8zCtV7lBdmYJqtbo7JkiKkdPO1yLSXFPE+N/Yj3dvB4uwCogAAAAAAAAAAAAAAAAAAD5e9sbVe9yNa1FVVVdkRPKSS+6n3/OrzPhGjcaSvgXguGQSs3pKRF7UiXslenYqJ2AZBqDqvQ4lUx45YqB9+yir2SmtVO7vkVex0rv8Adt+NTy8J0ouc91izzVa4x3vJN0kp4Wt2pLcnibEzs407Fd49tz39O9Lce08pZH0azV12rF4666VbusqKh69u7l5o3fsb2IhmQAAAAAAAAAAAAAAAAAAARS3+FLc/M0XoFrIpb/ClufmaL0C1gAAB11t9C6tS5OpIlqkj6lJlb33Bvvw7+Tcm+aaWXWmuS5tpXdEs99hYqyUjudHXJ2q17OxHL2cXi3KgC3HVMWvhSNOiJ4oiL/vun+nurVHldU/Gsktr8eyql3SptVQ9F4lTtWF/ZK3bnuhQDD9Q9L8b1GomR3Ns1JcKbvqO5Uj+qqaZ6c04Xpz237U8aGGWnUnJ9NLpT4hrGxZaSoXq7fksEf8Aq8u3iqNuUS/GvaVXWM4auobSU0tU9qubExXqidq7H3DNDUwsqKeRskUjUex7V3RzV5oqKfSojkVrkRUXkqKVriqaZimbSmm0TlrVimpOvCOqtWskv+M1eBzS1FPT2KGnSKsgVj1ax3XrykXvV734zy7hqD0gMft0l/zDI7Fd7LmDHwWS322k6ipt73L3ivl/3iInaU60dF7S+y5/Uag0zbzLNUK96Wue4OktkUjvdSMplTha7x7/ABqfeFdGTTTBctr8wtsl7ramv40SluNxdUUlLxru7qInJtH+4iuiNSOCMU8MxbeY3xMz9UzePHOYsjirpq4om9qona18xt0iM3pzFV+yFYDg1x0gzmzZ9f8AGsFrIMrWWG2voLZ1VyoalGK/jlqN/uyLwuReXjMt001Z1zqKrE8xz/IMdnxvNpZ6KlttJRpHLQysc/hldN2PbszmhnmK9FvTzBMhumYWGov1dcayCZlPTXS6PqaSke/mqwROTaPny3TxKp4GhvRNxfT+np8hyOa8VV9lhnjmoZ7o6e30rpHuVVp4tuGNVavanlU6eKidOIt9MY7X48d7eG9XlO6dGinT06+Ob1TNOec2pmJntF7TbN7WvETZOsX6QGrlw139jP2RqK6Ut2lq6ajR2JyUkNK5jFVj2VLu9qE327O3Y9vB866TFgsea5fqXqNi9+t+L1k1AyltljWGV6xKnE9OfPdF5N+IpeEdFbTXA8lpcptdxyesqaCaSeihuF3fUU9I5/JyRMVNmp8Rl1RpFhtRj+QY0sNXHSZNUS1VcsdQrZOtk905jvwV5cvIc+tTb4WKNH/qcExeet5t6xE2vvjyXo+X8yZ1NuKJx05+9oxiN+95xjmpOl3SvwmsxqojyeljomQVVzo6mhlt8tQ1E3ViNcm743bKionah3ujnpzTYnUZDkFmwqHCrJc52w0OPwNRrI2xbp3QqJyRZN99vEe7pR0d8I0ejuKY7dsluE1ziSCSovF1fWTRsRFRGxucneom5RLRaobNQsoIJ6iZjFVUfUSLI9d/KqnROpFNVXy4xMfe+fyj9GNFVfyY0tTNp9bY/Od+dojvDugHl5Jk9ixG0zXvIbjFR0kKc3yO24l8TU8qr4kMVnpuc1jVe9yNa1N1VV2REJHkWqWQZndJcK0Wiiqqlrurrr/KiOo6BN+as8Uzu1NkXkee1mb6+uV8yV2LYE5/eN3WGvujEXtX8KFq+TxoVrHcbseJ2mCyY9bYKGip02ZFCxGp8art2qvjUDwNP9MrRg0Dqh9RPdLxUqslXcqt3HLI9e1EVfct8iGU0duobf1vcNJFB18izScDduJ69rl+M7ILTXVMWmVI06IniiIv++4ACq4AAAAAAAAAAIpbPCjunmeP0C1kUtnhR3TzPH6BawAAAAAAAAAAAAAAAAAB+Km6Kgka4a4XrWm85RkMGlmqlLiNDhVrbcK2OW1xVfdz3MV6M4n82cmqnLyng656m6o0WD4leMU1BvFpuFRbIZ66nsOORXaoqJHsRVe6Ny/c2779nlPXuX+j/wBDcjud6v2W1GTXS6X2rmqaqoS9VECK16qqR8DHcPC3fZNz7x3o4aEah0FBZ31eQ182DOfbYKmO5z0sjY9+Ub1jcnWIm23MpwTOjGnE2m8TM77xVeInGL2tE4t3hrqalNGpM0RfExE7R+GIxnM2mb5mJlQejNqHfdUdHrPl2Sq5bjMssMz3wpC96xuVvE6NOTHLtzb4ipngYPg2N6dY9Bi+KUS0tvp1c5kbpFeu6ruqqq81VVPfOn4iujU1aqtOLRM4hzaVM0URTM3sAAxaAAAHgZng+N59ZpLHktAlRA9O8kavDLC78aN6c2O+ND3wBFKTJ8v0Nmhs2fy1F7xDiSGkvzGcUtEzsa2pRPwWpsiyKWO33Chu1FDcrbVxVNLUMSSKaJ3E17V7FRT6q6Slr6aSjrqaKop5mqySKViPY9vkVF5KhHblhuZ6N1j8g0sgddsckf1lxx2V6q6Fna6SlXt4vIzsAtAMdwjPccz+1eqmP1fHwLwVFPInDNTyeNkjfEqGRAAAAAAAAAAAAPOyDILNi1pqL5f7hDRUNK3iklldsieRPjVfEhj2oeqFg09pYo6ps1wu9avBQWqkbx1NU/yNb5E7VVfEYlYtL79nl5pc51ke2WSld1tssETlWlo9/wAKRP8Aeu225ORURQOjtnGvVTs5KrGcAa7/AIK27Jy5L44o/Gip2lbx/HbLitqgslgt8NHR06bMjiaiIq+Ny+VV8a+M9BjGRsbHGxGsaiNa1qbIiJ2IiH0AAAAAAAAAAAAAAAAAAAAAARS3+FLc/M0XoFrIpb/ClufmaL0C1gAAAAAA6d3s9rv1untN5oYayjqG8MkMzEc1yfoU7gAicliznQupluGKrVZLhDnK+a0O7+rtycuJ0Lu2RF/FXsKfh2a41nlmjvmL3OKspnLwv4V76KTbnG9PwXJ2KnlPdJXmGktwt91kzrSOrhsuQJs6ejVEbRXFE/AkanJir43om4FUBP8AT7VmjyqqdjGR0D7DlVK3eptlRy49u18Kr7tm/YpQAAAAAAAD8c5rWq5zkRE5qqryQkeRapZBmlynwvRaGKrqGOWGuvsqKtJQ+J3AvY+VPxewDJNQ9WLJgz4bPTwS3fIq3lRWmkTjmeq9j3InuY0XtcY7jOlN7yi8x51rJVx3CvZ31DZo+dHb27quyp2Su7F4l7DJdPtKrFgjZLg6WS632r76su1WiOnlcvbw/iNX8VORmwH41rWtRrURERNkROxEP0AAAAAAAAAAAAAAAAACKWzwo7p5nj9AtZFLZ4Ud08zx+gWsAAAAAAAAAAAAAAAAAAABEujkiJcs42T/APWpP71LaRPo5fxlnHnqT+9QLYAAAAAAAAAAAAAmWcaSSz3dM803r0sOUwt2erE2p7gxOfVTM7Nl/GRNzs4Dq5SZDcpMMy2jWw5dSN4prdPu1J2Jy62Fy8nMX+0ohiefabY7qDQsiucTqeupndZR3CDvaimkTsc1ydv6F5AZYCPWTUTKdNrnFiGsSJJSSv6u2ZLE1epqG9jWT/iy+Vewr0UsU8bZoZGyRvTdrmruip5UVAPsAAADr19worXSS19xqoqanhar5JZHI1rUT41A5+zmpL811XulRdZcE0nt8N7yX3M88ir3HbkXtdM9PHt2Im/M8aoyvLtcppLXp3U1FkxBHrFU5DwK2WsRF2c2mRU7O1FVUKVhWC4zp/ZYrHjFtZSwR83O5uklcva57l5uVV581A8HT7SegxOokyO/Vz77lFYm9Vc6pqK5FXnwxt7GNTs5bboZ8AAAAAAAAAAAAAAAAAAAAAAAAABFLf4Utz8zRegWsilv8KW5+ZovQLWAAAAAAAAAAAGH6haXYzqLSRNukT6a4Ub0mobjTLwVFNKnuXI5NuJE/FXkphln1JynTW6Q4jrFC6SimckdBk8TF7nm7dmVH4kq/EmxYzpXez2u/wBvmtV5oYaukqGq2SKVu7VT/wAL8YHahmhqImzwSskjenE17HIqOTyoqH2ROSxZxoTLJXYp3Zk2E7q+S0OdxVNsZuqr3Oq+6jRN1VF5lOw7OMYz6zRX3FbrFW0sqL2btexUXZUc1ebVRfKgHvHlZJk9hxC0zXvIrlDRUcCbukkXt+JE7VX4kMa1D1Ys2DrBaKOmmvWR168FBaKPvppneVfE1qdqquxj+N6UXjJ71BnWsVWy43CFeOgs7FXuK3b7c0T8N6pyXfdAXu8xIs617kctZFWYtgSrwpEu7K66t5b8X4kS+JU5lax3G7HidpgsmPW2Gio6ZiMZHG3bsTtVe1V+NeZ6TWtY1GMajWtTZERNkRD9AAAAAAAAAAAAAAAAAAAAAAIpbPCjunmeP0C1kUtnhR3TzPH6BawAAAAAAAAAAAAAAAAAAAET6OX8ZZx56k/vUthE+jl/GWceepP71AtgAAAAAAAAAAAAAAAOjerJacits9ovdvhrKOoarJYZW7tci/3EgdQ5noE99Ta3VmS4Gjle+jc5X1VpZ4+rX8KJqfg9pbT8VEcitciKi8lRQPJxfK8fzOzU9/xq5xVtFUtRzHsXmnxOavNq/EuynrklynS+/YrdKjOtG54qK4SOWaus0i7Ulx8btm9jJV8Tuzc6tR0hO7aCls1gw26SZpWq6L1GljVEpXt5PdJLtw8Le34/EBQc3z3G8AtS3TIK1GcS8EFOzvpp3r2NYxOa8/H4idW7Dcy1jrmZDqhE61Yy16SW/GmPVHyt8T6tU5KvYqIni7T3MI0lnhvPr81IuKX7KJE3iV38GtzV7WU7F9z8a+NSmAcNLSUtDTx0lHTxwQRNRjI42o1rUTsREQ5gAAAAAAAAAAAAAAAAAAAAAAAAAAAAilv8KW5+ZovQLWRS3+FLc/M0XoFrAAAAAAAAAAAAAAPxURUVFTdF7UNeNcpbbpbdXZjg8c9tu9QiPufUIraeSNy8KPenZxb8uRsQRfpfInsE3t2yb90USb+P+ExnZ8D8V/ctb5vDxYnE7Tfr1js8/wDtP4H/AOo/D/I45pzE3jeLTy6T3z5Pc0WxvG4LS/JYaaea/Vi7XGqrGqs3WdqsRV7Gpv4imHWtrWpQU2zUTeFirsn9FDsmXxOt/edarVta83bfBfDf3P4ej4e9+GLbW/f17gAMHUAAAAAAAAAAAAAAAAAAAAAIpbPCjunmeP0C1kUtnhR3TzPH6BawAAAAAAAAAAAAAAAAAAAET6OX8ZZx56k/vUzjVnVzDNFMSdm+eVNTTWiOeOnkmhgWXq1euyK5E7G+VTW/QnpR6K2zLK3HIMqbcrlmd73tVPQM65zmPVdnP29wnlVQNxAAAAAAAAAAAAAAAAAAB1bncqKz26qu1yqGwUlHC+eeVy7IxjUVXKv6EQ/ldo//AKQmsu/T1u815ujmYFlMqWCiaifcUkiXggmRexN17VP6j5Pjlsy7H7hjF6Y99Bc4H01Qxj+FXRuTZyb+LdDVjHejJoZXay5Xpy/T22RWi02q3SUPVRIyWnkRu6va/tRyr2qBt01zXtR7HI5rk3RUXdFQ/TrW2ggtdvprZSq9YaSFkEfG7idwtRETdfGuyHZAAAAAAAAAAAAAAAAAAAAAAAAAAAAAAIpb/ClufmaL0C1kUt/hS3PzNF6BawAAAAAAAAAAAAAARjpffeIvf7TRf5mMs5GOl994i9/tNF/mYwK/bv4vpv1LPRQ7B17d/F9N+pZ6KHYAAAAAAAAAAAAAAAAAAAAAAAAAils8KO6eZ4/QLWRS2eFHdPM8foFrAAAAAAAAAA/OzmpjmV6j4Lg8KT5ZlNvtjF7Oul2Vf3JzAyQEbqekdTXPjjwLAMlyFOLhjq4aNUpXfHx79n7jrLkXSjyJeGgwfGbFRy+5qJ65z6hqfq15AW0EVj0j1ovKPkyfXSrjjlb/AAOit0bGxr/x7oqnyvRaxq5J/wDNGY5Nc1X3XBcJIN//ALVArVxySwWjdbneaOl27etma3Y8SbVrTOn/ANvnNmZt5appiNr6LekNq26u13Gp2/nVxlm9JT2odBNJodtsNon7fjt4v7wPB1NzzQHUPB71guT6h446hvFJJSydZVMdwcTVRHIi+NF5mgn+jm0Z0m0a1ZzTP861AsCT2iqlteO9dUp92pnKu8ycXYuyIh/SiLRrSqHbbT+xO2/HomO/vQ55tKNMZ0RJdPseXhTZP/h0SbJ+5oHVh1p0mqNuo1Csb9/JVtPRpdSMCrnoyky+1SudyRG1LV3PKm0R0om7cFtLP+Cna3+48+q6O+ktWxY3YvHEi+OGRzF/tQCiU9TT1caTUs8crF7HMcjk/wCxykWn6JOlDplqqKXIqOb8F0N5nRqf8vFsI+j1fLVIj8Y1cv8Ab0ai8CSIk+y+Je+XmBaQRFMZ6TWKJxWvOLTmPDzRtyp20nF8SqzsPpuretONbLnmjb5kT3S4/M6r5fFuBbAS2ydJDTG4zsoL3cp8auMjuFtDeYlp5nL8Sc0/7lMpa2kroWVFHUxTxPTia+N6ORU/cBzAAAAAAAAEUw/wos780W/0C1kUw/wos780W/0ALWAAAAAAAAAAAAAAAAAAAAAAAAAAAAAAACKW/wAKW5+ZovQLWRS3+FLc/M0XoFrAAAAAAAAAAAAAABOOkFgt/wBR9LbliWMpTrcKqamfGk7+BmzJmvduv6GqZ3d7g21WqruTkRUpoXy7KuyKqJuiEI0k1r1zyjK6Wi1I01x2y2K8UklVaqm33J89Q/hcqIkjF5N32KxVE1cP82mYjzmKZtHYqtTTxTP78ovbpEzF55XhfaOJ8NJBC/bijja1dvKiHMaoUPS+zKm10otL8it2BdwV1xloWxW+8yTXWHhbu1ZIVThRezdEU2vJpmK6I1Kdp/2m0+kx7lXgrnTq3j/eP0kABIAAAAAAAAAAAAAAAAAAAAAIpbPCjunmeP0C1kUtnhR3TzPH6BawAAAAHWuVxobRQVF0udVHTUlLG6WaWRdmsYibqqgdhVRqK5yoiJzVV8RL8v1/xix3OTG8Vttwy+/wu4JbdZ4utfB5HSLyRG+VUVTwlq8619fKy0z1WL4E5ysbWIitrLvH+MxF9zC5OW/JSpYrhOL4TbYbXjVnp6OGFnAjmt3kcn9J698796gTGLDtcNSXrUZ3k0GI2x7dm2yzfdHzMXs617ubXeVEUyDFOjzpZiUy1dNj/d9U/m+a4yuqVc7y7PVUT9yFKAHDS0lJQwtpqKlhp4W+5jiYjGp+hE5HMAAAAAAAAAAAAAAAAAB4t+wvE8nifFfsdt9asibK+Wnar0/Q7bdP3KTWTo12SxzyXHTPKLvita/dVWKd1RG53/A9VRE/QWQARJmpOrumnDTam4S++21uzGXexNWRzWp2yVDF5N5duxTcMz/D9QrZ6sYffae5UyOVjnRKqKxydqK1dlRUPeexr2qx7Uc1ybKipuip5CZ5ro3HV3FmX6dXJcYySnT/AGlM1G09Y1P91MxOXCvjVE3ApwJ3p7qfWXi6zYNnVrSyZZRR9a6nVfuNdFvt19Oq9rN+W3aUQAAABFMP8KLO/NFv9AtZFMP8KLO/NFv9AC1gAAAAAAAAAAAAAAAAAAAAAAAAAAAAAAAilv8AClufmaL0C1kUt/hS3PzNF6BawAAAAAAAAAAAAADANb8IzHUbAqvD8Ly12NVdxVsctyjYj5IY90VVYi8lXkRyxdGHWbE8wx7JLl0nLvktqt7X0lfQXK3wUzO5nsVu0bmL7riVF5+Q2iI10upZodC71JBPJC9Kii2fG9WuT/WGeNCunRTp1zqRF5nrnlb8pn1mZTVPHEUztETHvn329o6MRxXocTWLJKe+3fVu4XqC31HdFtgms9NHLSuV2671Dfukm6ct3L2GySck2OC3/wAApt13+4s9FDsFqfDTwx1v62iLzO84iN+iKvHXOpVvP7zP5zIAAAAAAAAAAAAAAAAAAAAAAACKWzwo7p5nj9AtZFLZ4Ud08zx+gWsAAABFcvfJq9qjJpZLM5mN4/BHcLs1jlRK2RXJwwKqeJqoiqWoiugSxpmWp0dwY5Lt65Jlcr15up9k4Fb5G77gWeGGGmhZT08TI4o2o1jGJs1qJ2IiJ2IfYAAAAAAAAAGNagZxR6fWBL/XUNRVxrUw0yRwbcXFI9GIvPxIqnhWDV2PJNQrvhtsxavfarLEi1OQrIxKNJ9t3QeXib4/EY90sLFVZNo9V2OjqbjTSVdfRs6+3ovdEKdc3d7PIqdu5Nm23LMK07ynRd7Zqy4W1zblLcaaB6Pudrft1qyv/DqFYjuLbt8RSuuNPSq1qpjw8Von8Xhpnflw3mZxMz5Uy6I0YrpoiJzVNpnpF4/PbtfrMNnaC/2K6wSVVsvVBWQxLwySQVLJGsXyKrVVEOxJX0MTHyS1sDGRs6x7nSIiNZ+Mq+JPjNJsOp8IumMZfP0ZMcr7Lj/qZ1VXHU0c8MUlw2XhckcnfOVHb8Sp2nHcce6SsOJZK3P75jlwq1x6BYZLZb5mUzKRI042TsXvpF27UbzKaut8ujj4Z5742iub+U8N4/wzE9nNpT8zU4O8RjfNVMW844rTH9UTHdupQZBYbpTvq7Ze6CsgidwvlgqWSMavkVWqqIp3G1FO6TqWzxrJtxcKOTfby7eQ/nLozcae1YFmVztuRWd1kttG2eutGOY1XUS9Ym28qpNzkcnP3Je9D9edONWNb2UuGV14lkgxxrHtrbbPSt3arUXbrERFU7adGK6uGmeUz5RFMzfymYtE/reHNVr1UzN6cRMR71RHvETeY/TLaMAGDqAAAAAAAAYHqzgSZZaYrzaahKHIbEq1lsrU5Kx7easdtzVqpvyO3pJnaaj4Da8qfAtPUVDHMqYV7Y5WOVrkX9O2/wC8y6bq0hes23V8K8W/k25kb6N3C718SW9r22d+QyrbEcvLquFN9vi4twLOAABFMP8ACizvzRb/AEC1kUw/wos780W/0ALWAAAAAAAAAAAAAAAAAAAAAAAAAAAAAAACKW/wpbn5mi9AtZFLf4Utz8zRegWsAAAAAAAAAAAAAAEY6X33iL3+00X+ZjLOap9MLpA6UUuK5DpBccnjospi7kq20VQxWdZClQxVexy8nIiIvYBtJbv4vpv1LPRQ7BOtHdcdNNZ6Csfpvf0vFPZnto6qojjVI0lRqbtRy8nKnj2KKAAAAAAAAAAAAAAAAAAAAAAAABFLZ4Ud08zx+gWsils8KO6eZ4/QLWAAAAi2bRTaRalu1dSnkqMdvcEdtvbYk3WhVHJwVPCnNyK5URfInMtJw1lHS3Clloa6njnp52KySORu7XtXtRUA/aWqpq2njq6OeOeCZqPjkjcjmvavYqKnahykSntWoGhtZU3DG2yZJgr5HSvtKN3q7Yi7K50Tu2RnkjTsKXh2f4pnlCyuxu7RTqrEfJTuVGzwb+KSPtYvxKBkQAAAAAAAPzZF7Rsm++yH6APlrGtTZrURPiQ/dkXtRD9AHykcabokbU37dk7TyZ8VtU+R02UOY5tbS07qZnCqI3gV267pt5T2ADlMdQAAAAAAAAHy97I2OkkcjWtRVVVXZETyktyrWptTdEw3Sq3+uXIJ2qqzRLvRUjeaK6WZO94k7eDtUD1dWs/9a9vp8astP3fk2RKtJbKJi81V3J0r/wAVjU375eW539JsCj00wG1Yg2oWplo43LPO73UkjnK5yqvj5u2/cdDTjTSpxqqqMrzG7NvuW3BFbUXBWcLIY99+pgb+Az4k7VM/AAAARTD/AAos780W/wBAtZFMP8KLPPNFv9AC1gAAAAAAAAAAAAAAAAAAAAAAAAAAAAAAAilv8KW5+ZovQLWRS3+FLc/M0XoFrAAADpXe82jH7fLdr5c6a30UCby1FTK2ONifG53JDG01j0nVN01HxzZef8ZRfaMI6X1HSXHQy80NfTMqKeaemZJE9N2vasrd0VD37ZoDom+20j10txvnBGv8BZ+KnxAex7MWlHwj459JRfaHsxaUfCPjn0lF9o6Htf8ARL4Lcb+YM+oe1/0S+C3G/mDPqA7/ALMWlHwj459JRfaHsxaUfCPjn0lF9o6Htf8ARL4Lcb+YM+oe1/0S+C3G/mDPqA7/ALMWlHwj459JRfaHsxaUfCPjn0lF9o6Htf8ARL4Lcb+YM+oe1/0S+C3G/mDPqA7/ALMWlHwj459JRfaNGf8ASf6W6f664XZ870/zTHZsqsNSyllWO4x8ctJIuypsi7rwuXc3X9r/AKJfBbjfzBn1H63QHRRq7t0uxvf9gZ9QEy6LNs0V6O+iuPadUef4uysgpmT3KWO4xfdqp7UV7l5/u/cVv2YtKPhHxz6Si+0dD2v+iXwW438wZ9Q9r/ol8FuN/MGfUB3/AGYtKPhHxz6Si+0PZi0o+EfHPpKL7R0Pa/6JfBbjfzBn1D2v+iXwW438wZ9QHf8AZi0o+EfHPpKL7Q9mLSj4R8c+kovtHQ9r/ol8FuN/MGfUPa/6JfBbjfzBn1Ad/wBmLSj4R8c+kovtD2YtKPhHxz6Si+0dD2v+iXwW438wZ9Q9r/ol8FuN/MGfUB6DdYdKXPZG3UbHFdI5GNT1Si75yrsiJ33aqmXoqORFRd0XmimsfSq0X0lsOjFzutn06sVHWQVtA6KeGkax8bu6Y+aKnYpsrQfwGm/Us9FAOwAAAAAAAAAAAAAils8KO6eZ4/QLWRS2eFHdPM8foFrAAAAAABNc00Gw/Ka51+tclXj97RVe2ttkqw8cn40rW8pP3lKAETbftedMV6vJ7VT5zZIk4n3OiRIayNvib1Ce7X4z2bB0ktL7urYbtcanGqlzuBtPfYO5Hud5Go5eZUzxMgwnEcqYrMjxq23FVTZH1FMx72/ocqbov6APUo62kuNNHWUNTHUQSpxMkjcjmuT4lQ5yNVXRmx2gllrMEye+47VTP41WOrfNEi+LhjcuyfuOumE9JHGN5bVqjRZQ1Pc09woWU/LyK5u+/wCkC2gijNSekBYWuXL9IqCdrU719nrXTq/9y9h8J0m+43pDetHc/pnJ7qSO1LJEn/NugFuBJKTpPaZSKiXR9ytC+NK6kWPb9PadtOk3oPtvLqZaIfike5v/AIAqAJrD0ktB6j/Y6p2B/wCip/8AR2JekJonAm8upljai8+dQBQgTF3Sa0Ca7gXVWwq7yJOqr/2Q4pek3oojFdSZrS1jvE2na5yr+jkBUwRiq6UeKM39SsLzG7+TuG1LJv8A9zji19zC8uRuPaLZQzi9ytyplgT9/kAtYIl6p9KbJF6r1t4zjFO/3E7axaiZE8qsVNkX4j9ZolqjfF2znXG411O5d1paOiZTNankRzV3X9IFIyrUfBMIai5Zldttau9y2ona1zl8SInaqk8qOkTJkFRJadL8Avt9r+yGeqplpqF6+L7su6bfGe9jHR50sxl7p/UD1WnevEst3kWsVHeVOs3RCiU1LTUUDKajp44IY02bHGxGtanxInJAIvHpLqTqQ9tbrDmctJQPXrWWGzP6ltO78V07eciFUxXD8bwq2pacYtFPQU/JXJExEWR34zl/CX41PZAAAAAAAIph/hRZ55ot/oFrIph/hRZ55ot/oAWsAAAAAAAAAAAAAAAAAAAAAAAAAAAAAAAEUt/hS3PzNF6BayKW/wAKW5+ZovQLWAAAEd6WX3lbp+00v+M0ySg1EZTZq3BKihbHT0mPxXaStdJsiN34VaqfEib7mN9LL7yt0/aaX/GaYLqPiWquS622K2YhaFgxq74/BTXy9vXbuaJj+Lq40/Cc7sVPIoiYmqKOdV4i+17TOZ5Rj9IvMxC8cMaepXP4Yv3nMYjvMXiP5LO9HukZY9WarJZG2uWz2yy3R1uoqysdwJcERdkljRe1qr2FNmyjHKeKWee90cccMyU0jnTIiMlVdkYvkVV8RrXqVZbtgtvvd1ten17udstdxpXU1DaKTrJpYmyJusTPH41JXf8AXma4Wq52up0B1UtrbvlNJcI6qtsfBBFEkrd3SO35bbKZaFcV0ad+eJvvtRmeUXvV2iyOGfnVRViLxb1mu8d+G1Pndukuqum6Zn7Ha5vZ/XMreP1J7qb3Tw7b78G+/Yei/MsUjiuc8mRW9sdmbxXByzt2pU233k/F5J4zQFcKz+n1oSK9XPOkbXZGy6U1dasLhqIe5pJEVjH3BfujWcPJydiIVXM8AzmC7ZZabVhtfU0OdTrFd5mx7o+FnJP0boTqVVaWnFU7zTV5cVPBaPXimN946XtPDT82KYq8PFTEz/hm95j2idrNt7ZdbbebfBdrTXQ1dHUsSSGeF6OY9i9ioqclQxCn1u0uudNe5MdzS1XmfH43vr6agqWyyw8K7KjmovLmeJjmFXyn0EXBrHG+1V8dufR0bX94sW3JvPxckIDj2HN1Ke/EsR0XvOCVlroX0t7utVbkomXNyOTiayRvObjVN+JfKR8RXNGrXpacXiIxPvnaYtFovGZzy510pirRo1q8XqiJjpmMec3m07Ym6kaUdI/Ps5y+6UOSY3hNsx60QvqKyrpMnZUVVLEnNrpoNk4N05rz5FyxnM8UzOytyPFMhoLta3cW1XSTNkiXh7e+TlyNZNM6G1Z1nVqoMd0HvGGpYGuiv9ddbU2miusSJw9Wj/8Afovbu4xLTJ+rmIa35LhFqseUw4NJcaxz7N63Y6a1Mpli5LT1Leaq53Lb4zaiJqiKasTwTMT1mmczPaqPptF8Tfqw1NSumuqqafxREx0vG0d4nE3nnFs4bTWXXbRrI73PjVi1Mx2vutMj3TUkFcx8rEYm7lVqLvy2Xc5sT1q0lzu41Now3UWw3mto2LJUQUdayV8bU7VVEXkhqbjfR81Cs2R2TPEtFLTWmsZdG0mP0tjijqbZE+F6M6+pTv5HOVdtneUw/o7UebYhXyPuGm2Y1jqCz1cUscmHxWxadysds2KaPnVK7s74RHhi+/DMzHSY4sfaLxm193ZXpxFM10zjiiI7xM2v59NvKYy3ex/XLR7K8hkxPGtSseuV5i4+Ohpq5j5m8Hut2ou/LxndxjVfTTNKu5UOJ5zZrtUWdVSvipKtsjqZUVUXjRF5c0U1uTRiersmE3fDNNYMcv1wsVzSqr2W5kFVTTTQpwJO5E34t/L4yb9HTDM2o8+WhvkmdNrLfZ6yknhmwuG22+rl4dlV9UznMu/Nqu7d9yJiqmmYn6qaJmY/xREzi2bYiPXdXgp4aa4nEzHtMzGfa/rs3xdk+OtZFI69UaNnY6SJVlTZ7U7VTyohwJmuIrdqSwpkluW418Dqmlpe6G9ZNE33T2t33VE8amqWK6Na62S8W265bn9wye0OtleynsrrRHAlvc5d2M6xvNy+Ln2nm4JozqRfq+DUe+WOutuRV9NU2+3smZwraYGqqbfFx7bnPXq10zVMU3iPfPFaOkzeI2m1pmb3iykWtF53j9s9bWvvm9otltdiuq+muc3atsWH5xZrxcLdv3XTUdW2SSHZdl4mou6cztZpqJgunNHT3DO8stdhpqqXqIJa+obC2ST8VFXtU0u6M+I5hSaw0MF+qs4pH2yaV03W4TDbqKpVHLyfVs76RPGm/aWrpGUVLZswtObZdpZctRMbSkdQMtNBb0rpKaqcqr1/VO5Iit73i7U3N9afl0aVVOeLffG/SOfLlnMmnE16urpzFuHbrONvTn1th7PS0raS5dH65V9BUx1FNUVNvkiljcjmvatTHsqKnahaKD+A036lnooa26yQJT9EdI48anx+HraBYbbO9XSUzFqmKjHb9ip5PEbJUH8Bpv1LPRQ0rpimqYj77+rPTq46Yqib/r39XYABRcAAAAAAAAAAEUtnhR3TzPH6BayKWzwo7p5nj9AtYAAAAAAAAAAAAAAPxURU2VN0U/QB59Tj9hrd1rLJb59+3raZjv70Oi/AcEk/2mFWF3/FbYV//E94AYzLpjpxMmz8Dx//AJbbC3+5pxM0o00jdxJgljVf6VFGv96GVgDHWac6fR+4wTHk28lsg+ydiLC8OgVHQYnZo1TsVlBEn9zT2gBw09FR0icNJSQwp5I40b/ccwAAAAAAAAAAAAAAAIph/hRZ55ot/oFrIph/hRZ55ot/oAWsAAAAAAAAAAAAAAAAAAAAAAAAAAAAAAAEUt/hS3PzNF6BayKW/wAKW5+ZovQLWAAAEd6WX3lbp+00v+M0qlvmhgtFHJPKyNqU8ffPciJ7lPKSvpZfeVun7TS/4zT39U8BxfUfSWtx7LrfLWUPqas3VxTyQu42xbtVHMVF7UQpqVTRTNURstREVVWlnfqjb+Dre7qfg324utbtv+nc6t4tlnyS2PttzRlRR1CIrmpJsjkTn2opoZmOG6Saa9GvDLC/HKWKfJ5VqGS5Dca7uR9Ui991j41WRrlTbZOSHLilxzSm0rwSmtVLIxKS5XWlrIKOWd8UdAkffrC5/fORG+5V3M01NKJjVpqzFE27Tym/SInftlFVU6OrTRm8011Y/wAMTOOt7W88bt9adbdbaWno4p4YomNSOFqyJzROSIm/aYVqxqFlWn1JRV2O4BX5UyqlSmfDQKiy073L3sj0VURIk/Cd4jUPUh2iLrurc/uuRx0UNkpnabL1lS1ZK/gXi6vg91L1vBuknIyPU2v1Mv01q0wp6i7U14yXGI5LrUqr2PjpWMTrkcreTZV+JTP4mqvSpprjxTMzO/SmquYmeU2pmKul73aU6VNNMXmIiYjzji4YibduLHWYs3OoKqaW209XcGxwTSRMfK1r92scqJuiL49lOws0SJusrET/AIkIpbKLEbb0aI7Xm9XX+olFbu55pkfJ3SrGcmrunfK7sIBg91z6ozu8RapUlXBgrrtRpQSU75e6UVIU6jr/ACRq3ZV28e25tXEfNq06eXPaneMX5VTyp54zlyRq2+H+fV0vbnvEX8ovmeXRvQlVSrN3OlTEsqfgcacX9nafUs0MDFknlZG1O1z3Iif2qfzfsFyv9L0k433HIsAs2Xy3nqnvqKq4OuUtPt3jOr26hFVm2xs10tocWmtuLs1XqK2LT5tYq36amfKxid53iyrF36M4tuwwor+ZoaetGOLrNojETvnrbl4sbTdvVE0a9ejMX4emb7xt6Xvnw57Ng31dJHG2Z9VC2N/uXq9ER36F8ZyNexy7Ne1d035L4jRjKI9BavFsYdndzyFujVCr0xyrmkqWNdLw7MVHM+6uZ+Lx+PtPPzLXq/6P51a63Ar/AGaKzV+PUkdEmXpVcdZC1V4Up+qRe/VOXffFua3pmuaM7zEXj7VZxVO9s4yiPFTNUcqb+eYjw9YiJzOLVRa3Nvs6WJjXPfKxrW+6VXIiJ+k+IaykqEV0FVDIje1WPRdv7DT265vb8j0nulTnTq23evG40UC0jeuRXrK/Z0bFbzai+XkcDdLrbozJqXj+jlnq6GTuS1zUdPV1lRNC6oVu/NzlVURVXnsphGpVGnVqV02iIiY7zNrx6RMdeWIu0oojU+ieu/SKopifWZ8sTluVJVU0TXPlqImNauzlc9ERP0mPZ9lN1xTFarJLBjs+Qy0jOt7go1RZ6hqfgxJ2Od8RpxcJ9OqvC7Sus9XeqbGpplXN1qH1DHR3Lb7g3ePvki234eHtTbc57zmV/wAR02xV2mb7lUUlyviW7DFn61Ve16qn3RV77g232VxrNNdetPw1GarxETGYmfDz7zVenrTE1YsxjUimmjUm0xPFM3m2Iv8A+MRPH/TVMRm7cLTzJLzl2JUGQ3/H5LHWVkfWPt8rkWWn5rs1+yrs7btQ95tbRvl6hlXC6VPwEkRXf2EM6LeK12EYlk2MV1xuFbUUtwfJJNVSOe/rZGq96NV3iRyqiGp+kNxxeh6S9JUTz2J19ffJmdVSVde+7TOVF72WN/3BG7c+XkL3pr+Lo+Hp2ro44tneKZiO/wBW/a6nFNPw1etmeGqadrXtNWcXt9O2bX35twOmD94m7/tlB/mYyw0H8Bpv1LPRQjvS/XfQe7KqKm9XQdv7TGWKg/gNN+pZ6KFWrsAAAAAAAAAAAAAIpbPCjunmeP0C1kUtnhR3TzPH6BawAAAAAAAAAAAAAAAAAAAAAAAAAAAAAAAAAAAAAAAABFMP8KLPPNFv9AtZFMP8KLPPNFv9AC1gAAAAAAAAAAAAAAAAAAAAAAAAAAAAAAAilv8AClufmaL0C1kUt/hS3PzNF6BawAAAjvSy+8rdP2ml/wAZpV7WiOtNI1yIqLTxoqL4+9QlHSy+8rdP2ml/xmlXtP8AFdH+zx+igCptNrrYmU9ZbaWeKJd2Mlha5rV+JFTkcjKChiYkcVHAxrd0RrY0RE37eRzgDpzWe0VPU90Wqjl7nXeHjga7q18rd05fuOdaamdKk7qeJZEbwo9WJxbeTfyHKAOJ9LTSQrTyU8Tol7WOYitX93YfjqOkc1WupYVRdt0VibLt2HMAMM1EyfTPTGy1Gf58lut9HRqiyV0lH1kjV7E24Wq5V/QeLp3r1ozrjR3JuF36K9Uttj62sbPQSxsYxPGqSsRF/ceJ0q5btBp3DLYbnZbdcW1sfc1VekRaGJ+/bMi8laYJp/qVqBZZbtY9V8+0tvdDVWqR8NZii9XHSO2VE7oVV2RF8Rhp60VfNivHDNo8+GKu/Wem26dWmaZo4edpnniappxt26+TNMd6UnRlzjKKXTCx5Vbq65STOp6ahdbJUiWRu+6MV0fBy2XsUsNTYrJWdV3XZ6GfqERIusp2O4ETsRu6cv3GtFpvmA09j0otVJkmIyXOOsf1sdFWU7n8Sou23CvF4zaROw6Jjhmqid6apiZ5TMRE3jpvbefNFc0/MtRN6Zi8eU1VR/8AGJ5OvJbbdK1rJaCme1io5qOiaqNVOxU5cjlWnp3Oc90EaudtxKrU3Xbs3OQEDqz2q11UT4Kq20s0cqor2SQtc1yp2KqKnM+kt9AjIYkoadGU68ULUibtGvlam3L9x2AIwPlscbFcrI2tVy7u2TbdfjOkyw2OKr9UIrNQsqt+Lr207Ek38vFtud8DbIi3TB+8Td/2yg/zMZYaD+A036lnooR7pg/eJu/7ZQf5mMsNB/Aab9Sz0UA7AAAAAAAAAAAAACKWzwo7p5nj9AtZFLZ4Ud08zx+gWsAAAAAAAAAAAAAAAAAAAAAAAAAAAAAAAAAAAAAAAAARTD/CizzzRb/QLWRTD+fSizz4rRbvQAtYAAAAAAAAAAAAAAAAAAAAAAAAAAAAAAAIpb/ClufmaL0C1kUt/hS3PzNF6BawAAAjvSy+8rdP2ml/xmlXtP8AFdH+zx+ihJOlzPBS6H3ipqZWRQxT0zpJHrs1jUlbuqr4kMntmtmjzLbSMXVDF92wRp/GkP4qf0gM/BhPs3aO/Chi/wBKw/aHs3aO/Chi/wBKw/aAzYGE+zdo78KGL/SsP2h7N2jvwoYv9Kw/aAzYGE+zdo78KGL/AErD9oezdo78KGL/AErD9oD28xwnE9QbFPjGa2CkvFqqk2mpKpnFG/8AShK790RdGvWVd8PwXBLFjsV76plcsFOvDPE16OVjue+y7Gc+zdo78KGL/SsP2j9TWzR9y7N1PxdV86w/aIiIpm8dp87TExfrttJV4otP/ry6JteuhVoMympqnBNN8dxy9UdTDUQXGCmdxxcDkVeHn40RU/eX1qbNRFXfZNjCvZt0e+FDF/pWH7Q9m7R34UMX+lYftF+KeHgvi8z6zER+kKRp0xXNcRmYiPSL2/OWbAwn2btHfhQxf6Vh+0PZu0d+FDF/pWH7RVdmwMJ9m7R34UMX+lYftD2btHfhQxf6Vh+0BmwMJ9m7R34UMX+lYftD2btHfhQxf6Vh+0BhnTB+8Td/2yg/zMZYaD+A036lnooa6dKrVbTK/aMXO1WXUDH66tnrKBIqenuEckki90x8mtaqqqmxdB/Aaf8AVM/uQDsAAAAAAAAAAAAAIpbPCjunmeP0C1kUtnhR3TzPH6BawAAAAAAAAAAAAAAAAAAAAAAAAAAAAAAAAAAAAAAAABFMO8KLPfNFu9AtZFMO8KLPfNFu9AC1gAAAAAAAAAAAAAAAAAAAAAAAAAAAAAAAilv8KW5+ZovQLWRS3+FLc/M0XoFrAAADpXiy2jIbdNaL7bKa4UNQnDLT1MaSRvTyK1eSmH+wJoon/wDirFvoyL7JnoAwL2BdFPgqxf6Mi+yPYF0U+CrF/oyL7JnoAwL2BdFPgqxf6Mi+yPYF0U+CrF/oyL7JnoAwL2BdFPgqxf6Mi+yPYF0U+CrF/oyL7JnoAwL2BdFPgqxf6Mi+ySTpVaNaS2XRS83C1ab47SVLJ6NGTQ0EbHt3qGIuyoiLzTdP3mzBGOl994i9/tNF/mYwMkodB9FX0VO9dKsX3dExf4si8ifEc3sC6KfBVi/0ZF9kzW3fxfTfqWeih2AMC9gXRT4KsX+jIvsj2BdFPgqxf6Mi+yZ6AMC9gXRT4KsX+jIvsj2BdFPgqxf6Mi+yZ6AMC9gXRT4KsX+jIvsj2BdFPgqxf6Mi+yZ6AMGg0L0app46mn0uxiOWJyPje22RIrXJzRU73tM4REaiIibInJEP0AAAAAAAAAAAAAAEUtnhR3TzPH6BayKWzwo7p5nj9AtYAAAAAAAAAAAAAAAAAAAAAAAAAAAAAAAAAAAAAAAAAimHeFFnvmi3egWsimHeFFnvmi3egBawAAAAAAAAAAAAAAAAAAAAAAAAAAAAAAARS3+FLc/M0XoFrIpb/ClufmaL0C1gAAAAAAAAAAAAAAjHS++8Re/2mi/zMZZyMdL77xF7/aaL/MxgV+3fxfTfqWeih2Dr27+L6b9Sz0UOwAAAAAAAAAAAAAAAAAAAAAAAABFLZ4Ud08zx+gWsils8KO6eZ4/QLWAAAAAAAAAAAAAAAAAAAAAAAAAAAAAAAAAAAAAAAAAIph3hRZ75ot3oFrIph3hRZ75ot3oAWsAAAAAAAAAAAAAAAAAAAAAAAAAAAAAAAEUt/hS3PzNF6BayKW/wpbn5mi9AtYAAAAAAAAAAAAAANX+l7rfpa3Csi0rqcupKbKad1HUrbpt2SOiSoYqvaq8lTZF7FNoDQL/SsdGKq1Pwyzap4ZTMZkdkqGUNTIj0YstJK7ZE38eznb/oA3C0s1i031XpKtmnmT097ZZ3NpauWnRVZHKjU3buvJVT4jOyMdEbQm19HvQ7H8FpKeJtetO2qukzOfXVb0RXu38fiLOAAAAAAAAAAAAAAAAAAAAAAAABFLZ4Ud08zx+gWsils8KO6eZ4/QLWAAAAAAAAAAAAAAAAAAAAAAAAAAAAAAAAAAAAAAAAAIph3hRZ75ot3oFrIph3hRZ75ot3oAWsAAAAAAAAAAAAAAAAAAAAAAAAAAAAAAAEUt/hS3PzNF6BayKW/wAKW5+ZovQLWAAAAAAAAAAAAAnuoGq0ePVzcRxK3rfcrqkRIaGJycMG/Y+Z3YxPHsvaB7eeaiY5p7a+773UK6aTvaajhTjnqH+JrGJzXdeW/YhglmwHKdVKpuVav07qK3qju4MZbJxNgau+zqhU5Pk8abdnI9nANKam2XD166h3Rt/y2fvnVCt2p6NPEynj/ARE7V8a8ykgRRblmGglQ2K9OrMiwN79m1qbyVdpRV5dYm28kfi5dhX7ReLZfrfDdbPXQ1dJUNR0csT0c1U/d4zsyxRzxPgmja+ORqse1ybo5FTZUUj16wXLNKrjLluksfdloe5ZLnjL37Me3xvplXlG5O3bx9gFkBjeDZ/juoFrW42KpXrIl4KmllThnp3/AIr2LzT/AMmSAAAAAAAAAAAAAAAAAAAAAAEUtnhR3TzPH6BayKWzwo7p5nj9AtYAAAAAAAAAAAAAAAAAAAAAAAAAAAAAAAAAAAAAAAAAimHeFHn3mi3egWsimHeFHn3mi3egBawAAAAAAAAAAAAAAAAAAAAAAAAAAAAAAARS3+FLc/M0XoFrIpb/AApbn5mi9AtYAAAAAAAAA/HOa1qucqIiJuqr2Ih07zerVj1tnu97r4aKjpm8cs0zuFrU/SSBtXl2v0rmUTa7HMBa/hdM9qxVt1RO3hTtjjXxOTtQDv33Um/6gXSfDNG5I5GxL1dwyJzUfS0nlbEvZI9OxduxTL9PNM8d05tzqe1pNVV1SvHW3Grf1lTVPXmqvevPbfsTxJyPcx7HLJilpgsePW2ChoqduzIoWI1N/G5du1y+Ne1VPSAAAAAAJpnmk89ZdW53p3cfULK6fdyvan+r1zfHHPH2OVexHL2HbwDVanyOvfiWUUK2LK6VPutumdymRE5vhd/vG8ue3YUAxHULTPH9QqKNK9r6S5Ua9ZQ3KnXgqKZ6dmzk5q3ftb2KBlwJHj+pd+wa8wYLrC1IpJ14LbkDGbUtZ27NkXsjlXxN8ZW2ua5Ec1UVFTdFTxoB+gAAAAAAAAAAAAAAAAACKWzwo7p5nj9AtZFLZ4Ud08zx+gWsAAAAAAAAAAAAAAAAAAAAAAAAAAAAAAAAAAAAAAAAARTDvCjz7zRbvQLWRTDfCjz74rRbvQAtYAAAAAAAAAAAAAAAAAAAAAAAAAAAAAAAIDbsjtq9MS6Y0iyd2JYYpl5d7w8G/aX41UtvL/SFXX48Wi/wzasAAAAAAGM53qFjun1sSvvUz3zTKrKWjgbxz1Un4kbfGp4efarR4/XsxHEaD1dyuqZvFQxKqtgavJJJlT3LN/3nXwDSaa13J+bagXT1wZXVc1mkb9xoWdqQwN7ERv4226gePYsCyvU+4xZhrBE2loYnpJbMaicqxRN2ThknX8J6p2sXkilfiijhjZDDG2OONqNYxqbI1E5IiInYh9ko1k18TSW72fHqDTTLMzul5ilmhpLBStmexke3Ert1TbtImYiYjqtRRVXfh5Z9lXBgul+plfqDYZ75fdPMkwhYJODubIYGwSuT8ZNlVNjMH3S2RxsmkuNK2OT3D1maiO/Qu/MtVTNM2n+XZ01RXF6f5Z2gcUNTTVDWugqI5Ecm7VY9HIqeVNj9nqIKaNZqmaOKNO1z3I1E/epGyzkB1W3W1uidO25UqxM5OekzeFv6V35HJDWUdTGk1PVwysVdkcyRHIq/pQDmB15a+hgjSWatgjYq8KOdI1EVfJuq9p+z1tHSxpNU1cMMbux8kiNRf3qB08jxuyZZaZ7HkFvirKOdNnRyN32XxOavicniVOaEnZW5loLVMprmlVkWAvcjWVaIr6u0777Nen4USeNy80LU1zXtR7HI5rk3RUXdFQ+ZoYaiJ8FREyWORFa9j2o5rkXxKi9oHVs94td/t0F3s1dFV0dS3jimidu1yHdI5ecEyrSu6y5hpO11ZaZnLJdMaeq8D08ctOvakn9Hkhn2DZ/juoFr9UbJU7SRL1dVSSd7NTSJ2se3xKn9gGSgAAAAAAAAAAAAAAAils8KO6eZ4/QLWRS2eFHdPM8foFrAAAAAAAAAAAAAAAAAAAAAAAAAAAAAAAAAAAAAAAAAEUw3wo8/80W70C1kUw3wo8/80W70ALWAAAAAAAAAAAAAAAAAAAAAAAAAAAAAAADVS38v9IXc/jxaL/DNp+6afhc/r4+Fnul4k2b+nyGpeZY/qPQ9NR+WYDFbalaiwx088VXv3jUZsqpseHk1B0pprfm02MV+IU+JvlRa2lraaodcXf8A1Ehc3vfLsZ8f/Gp0usTN+lqqY/8Al9kak/L0Z1d7Ta3XFU4/y/duPV3qzUEsUNddqKnknTeJks7GOkT+iirz/ccNRk2N0k7qaqyG2wzNVEdHJVxtcir2boq7n83OkIzI6HVqSs1BuOKUFCtroHYpVZFba6rkgjSJvWLB3Nybs/bdH89yt0fRu0ry/O9Pr/muKwZTc7xa1qrndonVMMNZM1USNysVycOyIibKiF6qoo4Jq2mqKccuK/3i03iZjNoi+bNWfl1zTv4eL7UzMf6oiLX2m9sX3YWWJI+uWRqR7cXGq8tvLv5CSX3Uq/6gXeqwnRxUelK9YLpkDmr3PRu8cca/hybc0VN0MG1BuuqlDLT2rUemjsunSSpBU1ll41mjiTkxkvavVqmyLsX3Drdi1rx2ipMNipGWlsSdzdzKjmK3t338a/p5kzbkRe2Xl6e6ZY5p1QyxWuN9RX1j1nr7jULxVFXMvunuVezfyJyMuACQ1F6Y95s1i1Owauv2td+0wpFoK5i3i00bp3Ocqt2jds12yL+g26Jxq9rHpHpTBSS6nV0caVTlbAxLfJWP5dvexscqJ8exSqqKKqapm2fziY6x1/eG+hVNM1Wi+J/Lfaf5zhrjeMp0/wAw0Ooqer1lyHUzCrdeo/XXeZ6eWCobSLuqtejWNdwIn4qbi+aU9H3U7Q+Spw+y3y64tZ6xrLBLLVVMTWMc77okPNJFZxb+75m2OF3nDc0xenv2KU0ElnuTeNm9H1KSJ2d8xzUX+1D3oqOkggSmgpYY4W9kbGIjU/cnI3qpiiqaaqedM970zTvjO0xTziKp3u4ovq0RNFXKq0xtaYqjGf8AFnlNo2aOax5zX9F7UDDLNpjX45YLQmKdUymyFtbURPVZuJWRuj3XrF8rlNnL/Z7NrZodJFn2OvdT3a1uqaihSWSJUejVVOFWqjk5oip+lCh1VsttcrXVtvpqhWe5WWJr+H9G6cjso1qN4EaiNRNttuWxWuqdWmqNXMzN7zyzM/rHs6OKIroqoxFNNpjrOM/n7tFqzB9KtJ+ifRRes+OKnyZ6LXz3eprJKSOVr+9dUKxVlRF7E4fHsYppmudWzQyWlwK3W+Gpffpqmjhtr6p1JJROROKSFZe/4lT3KO5bn9DpqKjqIO5aikhlh/8ApvjRzf7F5H7FRUcDGxwUkMbG8mtZGiIn6EQiqqaq6qp5zTNuVqaqaoiY5/TbylauqmqnhppiPqn/ADcX5cX27tJc4XQJ9kx5dV5L4zA1hetJ1y1KSerP+9Sbq++6zi7PwdzEekA7LPWPgKZiuPes3hqeqXJ31jY+Dl3Lxdzd/wAXDt2/vP6CzWy21EaQ1FvppY0dxIx8TXIjvLsqdp+1NvoKyJtPV0NPPE33LJImuan6EVDOaLxNudXFnbn/AKovameUU04wwpptVFUztFsY6bdIm16o5zNU4uk/RRqb1V6KWaa9ZTar+/ilbT1dsZK2nSBHbRxt63v+9bsm6lgMD1N1i0u0MstPcs7vcFnpJ5Eigihp3SPe5fxYomq7byrtsZNi2U2HNbDR5NjVwZW26ujSWCZqKnE1fiXmi/Ep062p/eK6tWmMX9rlMTpxFFW856e0dHrE0zrSaWru7c907rm2LK4G7OezlBcI0VF6mdqctv6SJvuUsGK6faf6sU2SV8uIZRROseWUTeKot0/JJWb7JLCq8nNVexO0oJLte6TTmPGmXvM65bdcKF/Haqyl37tZULyakSN5u3XZNtlTn4j2tHa7Pbjg9JVaiUSUtzcq8LFXeTqvwFk8XGqc1AzcAAAAAAAAAAAABFLZ4Ud08zx+gWsils8KO6eZ4/QLWAAAAAAAAAAAAAAAAAAAAAAAAAAAAAAAAAAAAAAAAAIphvhR5/5ot3oFrIphvhR5/wCaLd6AFrAAAAAAAAAAAAAAAAAAAAAAAAAAAAAAABFI+XSmf8dl/wDwLTwM2VOFNl7eXaRbs6Uycu2y/wD4FrA4ZqSlqFRZ6aKTh5JxsRdv7TkbHG1ERsbURvJNk7D6AHHUU8FXBJS1ULJYZWqx7Hpu1zV7UVCOXLEMs0XqZsh0vo5LtjbnLLW411mywt7XPpVXk3bmvD4+ws4Ax/Cs6xvP7PHesbr0midykicnDLC7xtexebV/SZAS/ONLLnFdJM80ruEdmyVu754XJvS3FPG2VnZxL2I7xLzPV091UoMxllsN3oH2PJqPdtZaqh3ftVO1Y3f7xvxoBL9fqiXIs2p8Qvmsdz01tFHSLW09bQVzKN9dMiIqxrI/kqJ+L2ruTWSll1CqY6rUXWSpwWKWmVlvusFTHSz1rIE2STrJU4VR6c1RO02tzrS/TzU2mpqPUDD7ZfoaOTrYGVsCSJG/ypv2HVzDRvSzUC10FlzTA7PeaG1tRtHT1VOj2QIiIiI1PFyRDHT0ppiOKcxVMx68UX84iqIiNp4YznE1+Ou97RaI9ppm3lM0zMzOYmqbRjOrWX6gahY3hWBa3U+RXy4VdLdPUV1hjuUVBb7tTI5yNnkWTZvG5rUXi7F3PQ1u1QyLVDTzEL/i1XmVnuV3qX08eN4tdImXConRXJutQicCxJtzd2Gz2U6Xad5vjdPh2W4da7rZKRGJBQ1MCOhj4E2bwt8WyckOxYtPcHxmOgix/FrdQMtcDqajSGFG9RE5d1a3yIqnRrcOtxRMWjj4otvEbzHrPKYmM4ta05aVE6VMTH1cNp3tM7RvN8dbxOM3veNCsozHVddO8FtFwynPaev6qoWsihymmoa9HNeqIs9RJsyTbyIU+L1T1gx7CcMp9d8qs9ZQ2mWsrp7JdI+7Z3Ii7LM9N0kan4yclU2Oy3Q7SHPKSnoMx08sl3p6R6vgjqqZHJG5e1UO3jekmmeIVUNbjGEWm2T09F6mxSU9OjXMpd9+qRfxd/EY6dFU01fNnM1cWOvDMRvO15vbPW/KdK48UTR5ek1X97Y5R22mNONUM01PoMDwTE7ff8yuULGSOmvNFkUFsrKp7d0RJp5u9f8AoQypNa+kDjtkw2ai04uWV19TSVccttpL5A+TqWR95PLOm7JH+NVQ2ayzR3S7O7LS47mGC2i7WyikWWnpamnR0cT17XNTxKp3sf05wXFaGktmOYtb7fS0EboqaKCFGtiY5Nla3yIqE6UalOnVTqVXqmZm/nTVHpmfaMWmyNamK6qZo2jl08UT64jtnGY31jv2tueWay6Y1M9dXU15y5K6hdbXSpI5lU9No+Pb3SRr40JZkmoOuMGEYzht5v2V3WodcbmlyvFpyCC1TdbC9OGLrpu94E/F7TfSTA8MlrbZcZcZt76qzK91vlWFFdTK/wB0rF8W/jPKyjRrSvNbOmP5XgVnulubUOq0pqinRzEmcu7n7eVV8ZMxenbOPKIiZnvN71X78NMYy08PBTTziN+8zMz7xaO2cbJVgCZzkmjlszvIsUsi6hUcM1ttdXX10VY2GFztmvkmavA9VREV23NVK5pdhEOAYbRWBk6zS99UVMm/eumkXik4fI3iVdk8mx27Pp9hWP45T4hZMZoaOy0ruKGiij2ijXffdEPfYxkbGxxtRrWojWoniRDp1daa667fTM3iOkdO2ZmeakV1zp00Vcv5HpEbdLz1fRgGourFJiEsePY9bJMhymt72ktVM9Edv+NI7sjanbz232PFyrU3IMruk2CaNJDUXFq8FbfJG9ZR25N+a+SR3i2ReSmT6eaY2TAKaSaKSa4XisTir7pVO456h6813cvY3fsTxGA8XCNK61LszPNTK+O9ZM5FdC1EXua3ov4ELF7F25KpTAAAAAAAAAAAAAAACKWzwo7p5nj9AtZFLZ4Ud08zx+gWsAAAAAAAAAAAAAAAAAAAAAAAAAAAAAAAAAAAAAAAAARTDfCiz/zRbvQLWRTDfCiz/wA0W30ALWAAAAAAAAAAAAAAAAAAAAAAAAAAAAAAACKP3TpTR/HZV9AtZFJt06U1P8dlf6BawAAAAAAYVqNpbZdQKaOp6+a2Xui7+gutI7gngenYiqnumb9rfGhmoAlGL6o3nGrvDgmsLIaK5vXq6K7sRGUdx8i79kb1/EKueNlmIY9m9mmsOS22KspJkXZHJ30btuT2O7WuTxKnYS2C/ZZoPNFbMvkq77hLnpFTXdresqLcn4LZ07VYnjkUC1g61uuNBd6GG5WusiqqWoYkkU0Tkcx7V7FRU7TsgAAAAAAAx3OM+xvT60OvGRVbmtXvYKeFvHPUv8TImdrnL5APYul0ttkt891u9dBR0dMxZJp53oxkbfKqryRCO1F1yzX177djc1bj+Cq/gqbkm8VXcWovNsHjjavif40Oa14ZlOsVZTZRqlTOt+Psc2e342juUje1r6ryqqdsa9hYqamp6OnjpKSFkMMLEjjjY1GtY1E2REROxEQDzMWxSwYZZoLDjluio6SBqIjWJzevjc5fG5e1V8p64AAAAAAAAAAAAAAAAAEUtnhR3TzPH6BayKWzwo7p5nj9AtYAAAAAAAAAAAAAAAAAAAAAAAAAAAAAAAAAAAAAAAAAimG+FFn/AJotvoFrIphvhRZ/5otvoAWsAAAAAAAAAAAAAAAAAAAAAAAAAAAAAAAEUqeXSno/jssnoFrIpWbp0pqBfLZZfQLWAAAAAAAAAOKppqatp5KSsp454JmqySORqOa9q9qKi8lQ5QBGLniGXaNVkmSaY00l2xx7+suOOucqvibv30lKvbxJ4mdhR8LznHc9tDbxj1akrPczROThlgf42SN/BchkBL820puMN2XPdK66OzZJHs6amVNqS5tRUXqpm/g7/jIm4FQBgmnuqlBmE0tgu9HJZcmoW/65a6jvXeRXx7+6Yq9i9pnYAH4qo1Fc5URE5qq+Ik+Val37LLtU4Fo/HHU18SuguF6em9Lbl7HbL2PkTxJ2bge3qHqpTYnMzHMet7r5lVYm1JbIefCq9j5lT3EflU6GC6V16XRme6nVsd4yiTv2RoiLS25PFHC3sVW/j9p7enml9k0/pZJY5pbneaxyyV92qk3qKqRe1y9vCi/ipyMyAAAAAAAAAAAAAAAAAAAAAAIpbPCjunmeP0C1kUtnhR3TzPH6BawAAAAAAAAAAAAAAAAAAAAAAAAAAAAAAAAAAAAAAAABFMN8KLP/ADRbfQLWRTDfCiz/AM0W30ALWAAAAAAAAAAAAAAAAAAAAAAAAAAAAAAACKV2ydKe2fHZZvQLWRW48ulPafjss/oFqAAAAAAAAAAAAAAMK1F0tsmfwwVnXS2u+293W2670vez00idi/0k8Wy7pzMax3Ve54jcmYXrMyK3V3A7uK7tRUpLg1qbrsv4L9k3VFK0RXpgwQy6FXiSSJrnx1NGrHKnfMVaiPfZe1PIB+TXfLNfHyUWMTVNiwRXOjmunCrKi6s3VFSFF9zGvNFVdlKpi2J49hVlp8fxm2RUNDTN4WRsTdV+Nzl5uX41VVO7a444rbSxwxMjYkLNmsajWpyTsROw7QAAAAAAAAAAAAAAAAAAAAAAAAEUtnhR3TzPH6BayKWzwo7p5nj9AtYAAAAAAAAAAAAAAAAAAAAAAAAAAAAAAAAAAAAAAAAAimGeFFqB5otvoFrIphnhRageaLb6AFrAAAAAAAAAAAAAAAAAAAAAAAAAAAAAAABFbpy6U9l+OyVHoFqIpeOXSmsPx2Wp9EtYAAAAAAAAAAAAAAIx0vvvEXv9pov8zGWcl/STxLIM30jumOYxRd13ConpXRxcW26MnY53P9CKBSLd/F9N+pZ6KHYOGijdFRwRPTZzImtVPjREOYAAAAAAAAAAAAAAAAAAAAAAAACKWzwo7p5nj9AtZFLZ4Ud08zx+gWsAAAAAAAAAAAAAAAAAAAAAAAAAAAAAAAAAAAAAAAAARTDPCi1A80W30C1kUwzwotQPNFt9AC1gAAAAAAAAAAAAAAAAAAAAAAAAAAAAAAAil65dKfHfjstV6JayKX3l0p8Z+Oy1folrAAAAAAAAAAAAAAOrdK9lrttVcZG8TaaF8qpvtvsm+xDNJukFqhm+VQ2vNdGExiz3OlkqbVcG3eOpdUo1yoiLG1EVm+3jM81yxfULNMArcX01yCnsd1uCtiW4TRpIlPHuiq5Gr2ry7CNY1oD0ocfzTGrtftd7XktloY5KGto2WOOifHTujVEdG5qru5HKimenNderMbRGM7fTVM253vwxE7b3TqRPy7U2vaZ7xaYtHTMcV43+m27t0PS5ySHWWj00yTBLFRUFfXyUUNVT5LDUVrOFN0WSkRONir5F7DZs1VxToY5Has2gy3JNQrLdX22qWqt9QzHIoa9rlduqy1KLxSrw8t1NqU7C+nf5Uce9/WYtGZ5XvfblBq2+fVFH08vO87c9rbv0AEoAAAAAAAAAAAAAAAAAAAAAEUtnhR3TzPH6BayKWzwo7p5nj9AtYAAAAAAAAAAAAAAAAAAAAAAAAAAAAAAAAAAAAAAAAAimGeFFqB5otvoFrIphnhRageaLb6AFrAAAAAAAAAAAAAAAAAAAAAAAAAAAAAAABFMg5dKfFvjstZ6JayKZHy6U+JfHZK30S1gAAAAAAAAAAAAAAkPStudxtGiV4rrVXT0dSyoo0bNC9WPai1DEXZU8qKV4/nZ/pHukPq1oVdH43cbDDe8Cy2KKSmqHN4HUVTFKj+rRU7d+Hx+ID+hdAquoaZzlVVWFiqq+Pkh2DXboTam6t606aS6pan26K1U96n4rLbom8o6RERGv37V3+M2JAAAAAAAAAAAAAAAAAAAAAAAAAils8KO6eZ4/QLWRS2eFHdPM8foFrAAAAAAAAAAAAAAAAAAAAAAAAAAAAAAAAAAAAAAAAAEUwzwo9QPNFt9AtZFMM8KPUDzRbfQAtYAAAAAAAAAAAAAAAAAAAAAAAAAAAAAAAIpkvLpT4d8dkrvRLWRTKOXSnwv47JcPRLWAAAGCa2ah12lunVyzK22xlwq6RY2Q071VGvc9yNTdU8XMwqDMOlDPBFUMwDFuGWNsif6zLy3RF27fjO90svvLXT9ppf8AGaVe1fxXR/s8fooBHvXX0o/g/wAW+cy/WPXX0o/g/wAW+cy/WWwARP119KP4P8W+cy/WPXX0o/g/xb5zL9ZbABE/XX0o/g/xb5zL9Y9dfSj+D/FvnMv1lsAET9dfSj+D/FvnMv1kr6Rejes/SbwaPBM8wLHIKeCrjrKeqgne6WF7F3XbfxKnJTcAAa/4xP0jMPx23YtYdNsUp7faqaOlp421EiI1jU2Tki/vPU9dfSj+D/FvnMv1lsAET9dfSj+D/FvnMv1j119KP4P8W+cy/WWwARP119KP4P8AFvnMv1j119KP4P8AFvnMv1lsAET9dfSj+D/FvnMv1j119KP4P8W+cy/WWwAa6ZzrL0g9N8fdluUafY8tsp6mnhqEgqJFkRssiM3buvi3Nh4Jevgjm226xiO2/Sm5GumD94m8ftlB/mYyw0H8Bpv1LPRQDsAAAAAAAAAAAAAIpbPCjunmeP0C1kUtnhR3TzPH6BawAAAAAAAAAAAAAAAAAAAAAAAAAAAAAAAAAAAAAAAABFMM8KPUDzRbfQLWRTDPCj1A80W30ALWAAAAAAAAAAAAAAAAAAAAAAAAAAAAAAACKZXy6U+D/HZLj6JayKZdy6U+B/HZLl6JawAAAjvSy+8rdP2ml/xmlXtP8V0f7PH6KEo6WX3lbp+00v8AjNIJ0nMwxm26s2yx51qzqhitrbjMFRS0+Gtlckk6vVFdIkbHL2eUrM2mI/mIu10tKdSKpjlF/vEfq3dBq9hWvlwxTR7GkxK3XzU28Xmplo7HS1M6U9fUQxpxOdVPkTaN6N3VeJE3PTzLpPaq43arPc7R0Z77dXV720tZCt1hp3UdZvssPfN79EVfdpyU1qomKopjN5iIxMXmdv2nlFWL3c8V+DjqxiZ9ImYmftPplscDX3U/pMZrplNZvVHR6N8FdSxVFc6fJKWnfSOdtxxtY/nMrf6PaeXkvTDuNp1Ciw+y6XtuVB1VHNPXyX+mppWsnTdOCnf38ioniTtKU+KbU9Zj1jHt0naeS1VUU79L+k/zbdssDXnO+k9nWM5jdrLjWg11yGxWBtM+53qO6QwNp0majk+5OTiXZO1E8h5+p3S/vWn+SvtlHpFNcbTTx08k1xnvlPRq7rURfuMMicU22/PhLU01VzTER9U2jzxv0ibxaZxN1piYqmnnERVPlO3nPaMxzhssDXDMemVZsWzdmPR41R1Flo+523q6zX2np3298rUVGpTv7+Xbib7nymYQ9I/HJXZ0q2ipSLCYO6Vk40VtaxWcTeDyb7onMpNVqeOds/bf/bryungqvEW3t97W/OPK8XV8GDafanevnSeh1Qlx+otnddvkr3W6WRHSRo1HLwK5OW6o3/uTDIelyy3YPU57YtO6u626mgpnOl9UIoY+vlfwLCsjk4UVq9q/GW1KZ0q506t4m2M/l7X2vaOcGlTOtFM0fim0crz0z/LXnk2IBA8O6SuU5Zp9kGVppUyC7WJWqlujyCmngnY78Lutv3Nu3jRew6ONdLmS7YJcsou2nUlLdLdcqe3OtlFdoK5JHTLsxzZo04F+NPEVqmKeK/4YiZ8ptbz3jbOVaPHwxH4pmI84vM+WInM4bFA13u3Sc1EteF32+e19u0t/x2Zrq6x+q0KSNo3JxNqGyKnCqK3nw9p7Vh6R1xjxShyfUzTesw1K6mfVpBPXR1CsiRN2qrmIibry5fGRXVGnTNdU2jH3/npm+0piJm0xE57fzrE94mJjeFuBrhQdLy537DbbfcZ0cvVwvV5mlhoLN3XHHJJwuXZzpFThaitTiRVMtxrpCpdqmnpr9hlVZFdbH1VS6aqY9IKxm/FR8k5v2RV3TkWiYmJqvj25Xx1xPLy3RjimiJzH729+kc4zGHB0wfvE3f8AbKD/ADMZYaD+A036lnooa8a85qmofRXnzBlpnt0dxqaKSOCZyK9GpVsTddvLsbD0H8Bpv1LPRQtVTNEzTVFphETE7OwACqQAAAAAAAAAARS2eFHdPM8foFrIpbPCjunmeP0C1gAAAAAAAAAAAAAAAAAAAAAAAAAAAAAAAAAAAAAAAACKYZ4UeoHmi2+gWsimF+FFqD5otvoAWsAAAAAAAAAAAAAAAAAAAAAAAAAAAAAAAEK1BudttPSh0/qLpX09JE6y3JEfPIjGqvD2bqVn18YZ+VVp+eR/WdHNdMcK1CdSyZVZYquWi4u55ex8aL2oi+RTGfa26Sfk+75ZQM09fGGflVafnkf1j18YZ+VVp+eR/WYX7W3ST8n3fLKPa26Sfk+75ZQMY6U2V4vcNHblSUORW2eeSppUZHHUsc5y9c3sRFOLUHSXXO75nRagaNaqWTF3zWSG21dPc7MlakjWrx8TVVU4eexjfSQ0O04xbS2svtmszoaylqqV0T+sVdl61pstal3tdGq+Onj9FBzuvTXNETEc8IPW9HHN4cStlwxrUOkt2pNDXy3Wa9rQcVFUVUycMyupuzhVvYm/JTKaPR/LKvDbVacwzx13vkFxbc6+v6jhjlkRUVWRR/7tnLkniKyDT5tXFFXSYmOkWm8WjlF4vbZlVRFdHy6trTHnE3vfrvLWfW3opZPq7n1RfZcpx2SxT0zI4qS6Wfuqqo5UTm+CbdODdee23iMdy7oWZnes8hyi05liTKZKSipHy1+P9fcIeoZw8cE/F9zcvai7cjboGelPyYppoxabx9v2TVTFddWpMZmIj0jp06z1lFbHoPk0NgzO35NnEdyr8qbTxNq20vB1McLeFvEn4Ttk5qeVl3RNx/UGoul2zmoobzdO46ehsFRUUvElojjROJWJvzcrk33L+dK83ajsVqqrzcHObTUcTppVa3deFE57J41FWpGlbVqn6bTeeVoiL+fDFr9L9ZTRRM1+HMz63zeI8r8tto2hq7n3Qvut4z/15YfWYE1lYlPJcEv+NpX1D5o2taro5FcnAio3s8pmF56MVxuNzrKyjzCKjp7tXLPc6ZlL3k9P1PAkKJvyRHd8n9hkWlXScwTV3IpsasGP5dbaiOF07JbxZn0kM7Edwr1b3KqO5k/6SGp+cWDUi34hYtfMW0ttzrZ3Y6rvdviqEq5VererYsioibJz7S3FXo00UWxe8bfryi2I5coa0TOtxzePpz5Yt+kxPrdacP0+lxbTGLT1bmk7oqCSiSp6vZO+RyI7h+Lf/sRS+9D+/SaaV+mWNZ3Q09qr2U8r6eut3Xwd1sk43yKzfmj+SKnxGSXzLtQk6P1HcML1fx6/ZPWSQ08WTwUMbqORznojnpC1Vb2L2bnNohcdarPqRkenmrmotty9aG3U9dS1VJaWUKxrI5UVrmt7ewn5U61ddU7xz2vaKZt6cUTnF/JTT16o4a6MzE8fLEzMxxes3jEz3hgmP9EPUizae3/GY9QcYorjdZYVhgtth6i0sjavfpJS8Xfq9OSrueZX9GvKNKNPKyjx6vtbrrfr7bJGNs1p6iko5WOXebqUVe935qbhgiKpvVP9URE8sRbny+mNuitEU0V0VzF5pmZi/WYmPtEzEdImY5oni+iWeS4nlsGpWfUd6yXK6dKV1wpKDueGCFreFjWxb9qJ2r4zk1F6PMmoNHhNqqsl6mgxl0Ta+Dqd0uETG7KxfxUVURS0ATVeaarfTMTHnTtPvnvOdzPy505nE3j3iIn7RER0iLQ1iznSHUqzZDZbZpRldPZrgr3SQXGot3dFNTx7qiRvZ2LyPL1Z0wr3Y3helNVW3O4Zfdrs2vrb5b6R0VP1iL90e9U5MaqcuFTbEHPp6MadFOnE4iY85pi3hzym0cXXnnKNSOOqquMTMTtymYmJq88zbpfCE9Ke10tk6OdZaKKJscNJNbomNanJESpjLdQfwGm/Us9FCPdMH7xN3/bKD/MxlhoP4DTfqWeihvVVNUzVO8oopiimKadodgAELAAAAAAAAAAAils8KO6eZ4/QLWRS2eFHdPM8foFrAAAAAAAAAAAAAAAAAAAAAAAAAAAAAAAAAAAAAAAAAEUwvwotQvNFt9AtZFML8KLULzRbfQAtYAAAAAAAAAAAAAAAAAAAAAAAAAAAAAAAAAAAACO9LL7yt0/aaX/GaVe0/wAV0f7PH6KEo6WX3lbp+00v+M0q9p/iuj/Z4/RQDtgAAAAB4ua2mrvuJ3az0HB3TWUkkUXGuzeJU5br4v0ntAz1tKnX06tKraqJifVfTrnSriuneJu1C6MOg2s2nGdrX5PitJY7YyJ7Zqn10S3Z9V3+6MZFJyhRe3kZZ0gtM9TrxqPQ5rhWj+C6hUqWzuGSjyeoZG2mej1d1kaOa5N1Tl2GyINtSqdThv8Ah/3/AH5WtyU0ojR4+H8UWn7fs0sks3SBwuntWHYlpLhc91u9xlvddYPVLqLfb4+HvYoHtTbZHJvyQznRq8a4ya/Xmt1nwDH8dku9mghpW2m5rWIvVuVVVyqnI2VdS0rp21TqaJZmpskisTiRPIi9oWlpVnSqWmiWZE2SRWJxInk37SKK9Smrimb3mq/lMWi3eIinOb8PcrvVxTGJmIi+OUxM3854trWu5QAQAAAAACLdMH7xN3/bKD/MxlhoP4DTfqWeihHumD94m7/tlB/mYyw0H8Bpv1LPRQDsAAAAAAAAAAAAAIpbPCjunmeP0C1kUtnhR3TzPH6BawAAAAAAAAAAAAAAAAAAAAAAAAAAAAAAAAAAAAAAAABFML8KLULzRbfQLWRTC/Ci1C80W30ALWAAAAAAAAAAAAAAAAAAAAAAAAAAAAAAAAAAAAAjvSy+8rdP2ml/xmlXtP8AFdH+zx+ihPukZh+SZzpPdrBiUEc90kdDLBHIuzXqx6O2/wCxjVJn/SBp6SCnXSaJViiYxV67xoiIvjAuIIn7IvSB+CWL5b/2PZF6QPwSxfLf+wLYCJ+yL0gfgli+W/8AY9kXpA/BLF8t/wCwLYCJ+yL0gfgli+W/9j2RekD8EsXy3/sC2Aifsi9IH4JYvlv/AGPZF6QPwSxfLf8AsC2Aifsi9IH4JYvlv/Y9kXpA/BLF8t/7AtgIn7IvSB+CWL5b/wBj2RekD8EsXy3/ALAtgIn7IvSB+CWL5b/2PZF6QPwSxfLf+wLYCJ+yL0gfgli+W/8AY9kXpA/BLF8t/wCwPvpg/eJu/wC2UH+ZjLDQfwGm/Us9FDWnVxOkFqvhM2EJptT0CVtXSPfUPl3SNkczXuXt8jTZmljdDSwxP90yNrV/SiAcoAAAAAAAAAAAACKWzwo7p5nj9AtZFLZ4Ud08zx+gWsAAAAAAAAAAAAAAAAAAAAAAAAAAAAAAAAAAAAAAAAARTC/Ci1C80W30C1kVwrwodQvNFt9AC1AAAAAAAAAAAAAAAAAAAAAAAAAAAAAAAAAAAAAAAAAAAAAAAAAAAAAAAAAAAAAAAAAAAAAAAAAAAAAIpbPCjunmeP0C1kUtnhR3TzPH6BawAAAAAAAAAAAAAAAAAAAAAAAAAAAAAAAAAAAAAAAABFcK8KHULzRbfQLURXCvCh1C80W30ALUAAAAAAAAAAAAAAAAAAAAAAAAAAAAAAAAAAAAAAAAAAAAAAAAAAAAAAAAAAAAAAAAAAAAAAAAAAAAAils8KO6eZ4/QLWRS2eFHdPM8foFrAAAAAAAAAAAAAAAAAAAAAAAAAAAAAAAAAAAAAAAAAEVwrwodQvNFt9AtRFcK8KHULzRbfQAtQAAAAAAAAAAAAAAAAAAAAAAAAAAAAAAAAAAAAAAAAAAAAAAAAAAAAAAAAAAAAAAAAAAAAAAAAAAAACKWzwo7p5nj9AtZFLZ4Ud08zx+gWsAAAAAAAAAAAAAAAAAAAAAAAAAAAAAAAAAAAAAAAAARTCvCh1D80Wz0C1kUwrwotQ/NFs9AC1gAAAAAAAAAAAAAAAAAAAAAAAAAAAAAAAAAAAAAAAAAAAAAAAAAAAAAAAAAAAAAAAAAAAAAAAAAAAAIpbPCjunmeP0C1kUtnhR3TzPH6BawAAAAAAAAAAAAAAAAAAAAAAAAAAAAAAAAAAAAAAAABFMK8KLUPzRbPQLWRTCvCi1D80Wz0ALWAAAAAAAAAAAAAAAAAAAAAAAAAAAAAAAAAAAAAAAAAAAAAAAAAAAAAAAAAAAAAAAAAAAAAAAAAAAAAils8KO6eZ4/QLWRS2eFHdPM8foFrAAAAAAAAAAAAAAAAAAAAAAAAAAAAAAAAAAAAAAAAAEUwrwotQ/NFs9AtZFMK8KLUPzRbPQAtYAAAAAAAAAAAAAAAAAAAAAAAAAAAAAAAAAAAAADCdZNRZtK9P7jmlNZXXaej4GxUaSpH1r3uRqJxLyTmpgMOp/Semhjmb0dbdtI1Hpvk0O+ypv+KBdAQ72S+lB+brbf+p4fsj2S+lB+brbf+p4fsgXEEO9kvpQfm623/qeH7I9kvpQfm623/qeH7IFxBDvZL6UH5utt/6nh+yPZL6UH5utt/6nh+yBcQQ72S+lB+brbf8AqeH7I9kvpQfm623/AKnh+yBcQQ72S+lB+brbf+p4fsj2S+lB+brbf+p4fsgXEEO9kvpQfm623/qeH7I9kvpQfm623/qeH7IFxBDvZL6UH5utt/6nh+yPZL6UH5utt/6nh+yBcQQ72S+lB+brbf8AqeH7I9kvpQfm623/AKnh+yBcQa6Zdr9r1gFmXJ8w0ApKWzw1EENVNDkMUr42ySNYjkaibrsrkNh4JUnhjmRNkkajtv0puByAAAAAAAAAAAAAIpbPCjunmeP0C1kUtnhR3TzPH6BawAAAAAAAAAAAAAAAAAAAAAAAAAAAAAAAAAAAAAAAABFMJ8KPUPzRbPQLWRTCfCj1D80Wz0ALWAAAAAAAAAAAAAAAAAAAAAAAAAAAAAAAAAAAAAjvSy+8rdP2ml/xmlXtP8V0f7PH6KEo6WX3lbp+00v+M0q9p/iuj/Z4/RQDtgGManOkZp1kzopZInpaarhfG5WuavVO5oqdi/GVrq4aZmFqKeOqKZ5snBpLTdFnTOw6Z4nqhbLrmaX+ea31LpZMkqXsdI9yK7iYruFWqvi2Mny7psMxTU/1psnwxLBQPhp651bdJI7sr3J33VU6NVHc+zmX8Pz/AO7X8d7W5e/njaOXVGrHyonUn6YiZv5T068/SejbMGuuVdIrU6HLL7TYRpvbrhjOKNo6q73GtrXQy9zTR8auhYnunoniUxHO+nbbMX1BWz0VRh6Y7be51uvd9ykiun3VqO2ggRqo9URyeMmmmquumiIzVOPt9pvEX64Wroqojina0T53i8RHe03t0bcAhdw6QGX0mUJhlPgLai5XRWVtlkbMvUS21Wo508zvwHJzTh8p0rRr9qfV5RT3m46e2qDTO4VXcdHeY65zq1Xe54nw9iN40VNynFF6Ymfq294i3nxTw2/qvHKWU1cNNVcxinf1vt1xE1f9vi2bAggdVrZrFBquyyM07sT8DfcpLb6r+qTu7esYzi36nbbbsPNuHSxrWZ3ZcHs2Iw1tRNdHUl7ck6//AA6mVUSKb41cq7bDTn5sxTTvNsc4va1+m8b8pjqtq/8AB4pr2iJqmeVoiefpMeeN2xwNfZ+k/cqPCM/yOpxGH1Qw65zUNPRsnVUq2NXZj1Xxb+NPEUafUippNGV1Tq7ZFHOyypdpKTrO8avV8as4vInlLWtRNc7Rb/VF4+2/TmvOnVGr8m2bzHrE2/8AXXkzwEGw/pWYjqbXw2fTO62O+1vqDJc6tIqtUZR1LWovUyKqck3VU3+I8zo79JnJNWM3uuE5RSYb3RRQunjlxu6vrWtRruFWy8SJwu38RMUVVV/Lje0z6RMxP/jLGrVoopmqZ2q4fWbY+8NjAAVXRbpg/eJu/wC2UH+ZjLDQfwGm/Us9FCPdMH7xN3/bKD/MxlhoP4DTfqWeigHYAAAAAAAAAAAAARS2eFHdPM8foFrIpbPCjunmeP0C1gAAAAAAAAAAAAAAAAAAAAAAAAAAAAAAAAAAAAAAAACKYT4Ueofmi2egWsh2I1lHSdKHUNaqrgg3tFs26yRG7954t+0C4g6Xq1Z/faj+XZ9Y9WrP77Ufy7PrA7oOl6tWf32o/l2fWPVqz++1H8uz6wO6DperVn99qP5dn1j1as/vtR/Ls+sDug6Xq1Z/faj+XZ9Y9WrP77Ufy7PrA7oOl6tWf32o/l2fWPVqz++1H8uz6wO6DperVn99qP5dn1j1as/vtR/Ls+sDug6Xq1Z/faj+XZ9Y9WrP77Ufy7PrA7oOl6tWf32o/l2fWPVqz++1H8uz6wO6DperVn99qP5dn1j1as/vtR/Ls+sDug6Xq1Z/faj+XZ9Y9WrP77Ufy7PrA7oOl6tWf32o/l2fWPVqz++1H8uz6wO6DperVn99qP5dn1j1as/vtR/Ls+sDug6Xq1Z/faj+XZ9Y9WrP77Ufy7PrA7oOl6tWf32o/l2fWPVqz++1H8uz6wJV0svvK3T9ppf8ZpV7T/FdH+zx+ihH+lZcrbUaMXSOC5Ukj1qKXZrZmqq/dm9ib8ywWr+K6P8AZ4/RQDtnm5JZYsksFxsE874Y7jSy0rpGJu5iParVVPjTc9IETETFpTEzTN4YPUaWUFRp/adP/VapbT2nufgqUanWP6ns3Ts5k1yfopVdy1B9euKalrj9JI+KSptiY/SVaTOZ7peulTjTi+LsLhkd/t+LWKuyG6yKykt8D6iVUTdeFqbrt8ZIsS6UFNkNgyG/3nS3Lccjs1E+40cVxp2tddaZEVeODZduaInbt7pBFqtarWj64zM/zfa9u17YWnirpiidqvD6zMe2Ztfva+WIV/R7zrMtX8xubdQL5iuMVzqCOtoKekjkgvsbItnIrnLvGn4K8PlPZyzoleqeZplWE6hpi9NKkPddA3H6StSd0bUa1esl75vJNuRz4R0tKXI+7nZZpNluFRU1rfdqaW9RxsbW06InONUXx7p2ntaYdJS06hvuVJccOu2M3CjpnVtLRXCaF8tdSon+2iSNy97vsnPbtLzVNExV/RHFz2jE36/Tfh5WvaLIr1J+Iqmmc7U28oiPyt4vS7lruj1Hc6xL9XZ3dX3+CoZLR3JsbWOpokajXQIxF4VY5N+S+U8J/RjvVNf6muo9WbvLjsSyVFtxaWmjSkpalWrs/rEXjVEevFsqbbn7iXStXJaW/wA1fo1mlkqLLTd2w01bAxJK+DjRivhRF5pz35+IyXJOkXh2N1LoJqKtqWx2yC6yyxI3giilkSNEcqrsioq8ylXw8Tw0W7R2v+Wab3/qiavqvKmnHzKZ4JvEzbfeYmP/AN4jG9M8OacI7S9FDpE0cNrvUvSkulxuVDXNr32ue2Qto3Oc5Ekb1id+veck3TtKTiHRZxzFVu9Y7JK6tud6vSXeetliakjWIqObTJt/u0VOX6T7n6UNlhzuLG0wbIJcdfO2kky6NjH2uOdybpGr0XdV3VE5eNTKI9bMdko6qtbb67gpL2ticnCm6zIqJxp/R5obac1TTFWnFuKYtjP1UREdd4otE8rcpZ6vy66ao1JvERec8pirOMc69ud+cMRrOivY6q71VybmF0ihuEldLW0qRtWOodUJs3i5/wC77WlEqNO6Gp0ydplJcJlpHWz1MWpVqK9WcHDxbdm+x5Ps12FL5DaJLTcGQyV8ltkrXNRIYpm9iOXf8Jew8al6TWn9TcJaaRtTTUsTq6Pu2fhZC59Ku0jEVV5rv2InaZRq/N07U5pnO3TPvmO8xts7JnVnUmufqi1/Titf/LV7OOv6M2Guo4ocdnZj1TDY32ZtVbaKKF7nK1ESd/CicT0232XynR0b6M6aV5Q3MLjns+Q3JtE6hdItrgokkYrt0V6Re6cm3ap6mlPSDptSL/Njd2wDIsQrZI1qbYy8xNb6p0qf7+HhVe922Xn5UK2aRNelPHteJ9pmb+W8xPPeOzkqoo1PDVF7Tf1tHvtExyicxnIADNoi3TB+8Td/2yg/zMZYaD+A036lnooR7pg/eJu/Pb/XKDt/aYzy9bumdob0erMyLKcogr722GNIbNb5ElqZnK1OFE25JuBfQYrgeoNqzXDbPlsnV2x12pI6vuOonZ1sPGm6Ndz7T3fVqz++1H8uz6wO6DperVn99qP5dn1j1as/vtR/Ls+sDug6Xq1Z/faj+XZ9Y9WrP77Ufy7PrA7oOl6tWf32o/l2fWPVqz++1H8uz6wO6DperVn99qP5dn1j1as/vtR/Ls+sCQ2zwo7p5nj9AtZELNUU1T0oLo+mqYZm+o8e6xvRyJ3vj27C3gAAAAAAAAAAAAAAAAAAAAAAAAAAAAAAAAAAAAAAAACeZvoJplqDffXLkdiWS5LG2J9RHM6Nz2N7EXhXnsUMAR72qOjfvJVfPJfrHtUdG/eSq+eS/WWEAR72qOjfvJVfPJfrHtUdG/eSq+eS/WWEAR72qOjfvJVfPJfrHtUdG/eSq+eS/WWEAR72qOjfvJVfPJfrHtUdG/eSq+eS/WWEAR72qOjfvJVfPJfrHtUdG/eSq+eS/WWEAR72qOjfvJVfPJfrHtUdG/eSq+eS/WWEAR72qOjfvJVfPJfrHtUdG/eSq+eS/WWEAR72qOjfvJVfPJfrHtUdG/eSq+eS/WWEAR72qOjfvJVfPJfrHtUdG/eSq+eS/WWEAR72qOjfvJVfPJfrHtUdG/eSq+eS/WWEAR72qOjfvJVfPJfrHtUdG/eSq+eS/WWEAR72qOjfvJVfPJfrHtUdG/eSq+eS/WWEAR72qOjfvJVfPJfrHtUdG/eSq+eS/WWEAR72qOjfvJVfPJfrHtUdG/eSq+eS/WWEAao9Ivo7aX4jphV5DZLVURVtHVUronuqZHIi9a3xKuxtJaudro/2eP0UJP0svvK3T9ppf8ZpV7T/ABXR/s8fooB2wAB4ma4xDmWLXLGp6h8CV9O+FJWdsblTZHJ+ghUOlnSiuuJXPFsozTC3QspPUm1spaWZGvpFThWSfdN+tRqJtw8t9zZAEU+GZmOf6c/PkTm3WOfP+YRLOuj3NnVsprJdLnTy0MWKvsEsbuNFklVqJx7p2N5fpIbivRc1u0pt11nwXBtLKS+3Cl9SqO5W91Y6WGFVTvpuuVU4e95o3ym6NRfLLR/wu70UHfpH90qGN79exvNe34jp2zNcNvVVNRWbLbLX1FO1XSw01fFK+NE7Vc1rlVETx7kzxTNU0zMXib26TMzPveYnthFERTbtP3xH6X82ueIWDpJYfnE+Y66yYTVYvDjslvnlx6CZHwIi78Stem67/F5Ty9K9BpdQ9Dcooqu4yVNNmVV/8PluLHNey2tm4uqcnuk32d/ahtBa8ywzIZZqOy5VZbnLC1Vmipa6KZzETtVzWuXZP0nzFmmEtSqihyyxolubxVTW18P+rN323enF3ib+XYiIqivirzFrRFuXFNV569I7TVE3vhRTNFdNWliYqir1iLR5dZjrFNrWzr7ZujPqVjFdBprjeQY9R6QsrY7glHwSuukDm7O6qN67tVnG1vau+255GWaJdLmO8XeiwDJ9NGY9VX518pEudJUuqmuVUVGPVqbL2J2GzdrzTDr4r0smWWa4LHsj+5a+KXh37N+Fy7Hb9X7DwVMnq3QcNG7gqHd0s2hd5H8+9X4lL8dccN5m8Zvzmb0zEz1tw027RCI09PhrpimLVRET5eLHa/FVfrdpffa3UTH8GzvBdba60x5LX3CmqrJWY5Rz9S6umd9yRN03ThcibqvYUS89D+15/g+H4zmD4lZarfUTVq8TmzeqszUXulqt5KqP3XZe02Eo7/iV6iSqoL1aK+NZerSSGpilb1ifg7oq98nk7T0Yq2jnnlpYauGSaHbrY2yIrmb9nEic03+MiiKaKOGmLT4cxy4YtExHKbzxX/7emVMzRqRXNV/r3z9c+L7Ra3mh+kOkur9uy2iyjWPJMfrn41QOtFibZopGLJTKm3HUdZ2ybNb7nlvuXYAtXqValuLl+9595mZTEW/n2jsAAolFOmLGybQO+U8ibsmqaKN6eVq1MaKal9Iv/RTUOV3FNTtFsnlp781za19tuj1lgmc1qKjGKvNu+23PlzNtumD94m7/ALZQf5mMsNB/Aab9Sz0UAgWm/RcwWtwOxVGcYlNQX9aGNLjTx1knCydE77h2XbbfsMk9qjo37yVXzyX6ywgCPe1R0b95Kr55L9Y9qjo37yVXzyX6ywgCPe1R0b95Kr55L9Y9qjo37yVXzyX6ywgCPe1R0b95Kr55L9Y9qjo37yVXzyX6ywgCPe1R0b95Kr55L9Y9qjo37yVXzyX6ywgDBtP9F9PdMqyruOJWXuerrkRs075HPe5E7E3cvYZyAAAAAAAAAAAAAAAAAAAAAAAAAAAAAAAAAAAAAAAAAAAAAAAAAAAAAAAAAAAAAAAAAAAAAAAAAAAAAAAAABHell95W6ftNL/jNKvaf4ro/wBnj9FCUdLL7yt0/aaX/GaVe0/xXR/s8fooB2wAAAAGlt/td1otYcvrM/xa43XGK7aPH5aeB7o6Ov4F4esYnNzlXmj+xE5Ev6NVZSY9md4rbRhlJebvDQVjKmltmMVNqm6vrPunXTy97MvxJ2+I/pEBp/8ADtMcqIo87RMXnzvm1rxEReNyuOPf+qaverit+nvNsv53dH6iSXUrKMmx6x2ijs81kq6SZ9rxmotUkdQ5Vd1cjpV2kXb8JOW5kOhdg0X1BqKHF8Q09r33GGkqG5zPcrfNGy4xcTuFrpXd7MvHsqcJvNdLdTXe31FsrEcsFSxY5Eauy7L8Z18dsNvxey0lgtTXtpKJnVxI93E5E3Vea+PtL6dUU01U1dIiP/yXv28e3PGcZz1qatXVjUibZmZtjnpzGOvh3xblHTTm+adYzozoPcsh000vW2Xue7NgY230sizPcsiJE5zd1VWNVUVfiMfynTuv060ozn13U9yqKq7Vtqu1/kgVydfM6VFmSLypw/gob8Hg5nhdkzu0Nsl/ZK+lZURVSJE/gXjjcjm8/JuhGhV8qKYnM4zOcRGnFrd/l3mL5xGLZ20pjT1qdTaIqiqbc5ia5jPbjmPvu1JxS3YNecdzPULSPFq+yYbYW091pKeWjlo3SVdNu+p4Y5OffInN3YpZuipRX67YRUaoZfRpT3rM6l1erd91bSLzgavxo1SiajadWXU7HPWtf62509C6eOaRKCqWB8qMXfq3Kic2L2KnjQyG226jtFvp7XboGwUtJE2GGNqbIxjU2RE/cTTXERVjNoiO0REcX+aYpvHSmFdSI1IoxtMztHS1Pe8XqmZiYvNU3jLsgAoAAAi3TB+8Td/2yg/zMZYaD+A036lnooR7pg/eJu/7ZQf5mMsNB/Aab9Sz0UA7AAAAAAAAAAAAAAAAAAAAAAAAAAAAAAAAAAAAAAAAAAAAAAAAAAAAAAAAAAAAAAAAAAAAAAAAAAAAAAAAAAAAAAAAAAAAAAAAJd0lcWyjMNIrtZcOtsdfdnPhlgpnycCScEiOVN/FyQx2j1T12p6SCB2hzd44mMXa4ptuiInkLmAIl7LOuvwGt+kk+oeyzrr8BrfpJPqLaAIl7LOuvwGt+kk+oeyzrr8BrfpJPqLaAIl7LOuvwGt+kk+oeyzrr8BrfpJPqLaAIl7LOuvwGt+kk+oeyzrr8BrfpJPqLaAIl7LOuvwGt+kk+oeyzrr8BrfpJPqLaAIl7LOuvwGt+kk+oeyzrr8BrfpJPqLaAIl7LOuvwGt+kk+oeyzrr8BrfpJPqLaAIl7LOuvwGt+kk+oeyzrr8BrfpJPqLaANW9ZLrr7qrglRhFLo1FSPrqukc6d9wRUjYyZj3O228jVNnqSN0VLDE/3TI2tX9KIcwAAAAAAAAAAAAAAAAAAAAAAAAAAAAAAAAAAAAAAAAAAAAAAAAAAAAAAAAAAAAAAAAAAAAAAAAAAAAAAAAAAAAAAAAAAAAAAAAAAAAAAAAAAAAAAAAAAAAAAAAAAAAAAAAAAAAAAAAAAAAAAP/9k=;" vertex="1" parent="WIyWlLk6GJQsqaUBKTNV-1">
          <mxGeometry x="480" y="10" width="339.04" height="480" as="geometry" />
        </mxCell>
        <mxCell id="66BMOyi7AVUWOsAnXy_S-27" style="edgeStyle=orthogonalEdgeStyle;rounded=0;orthogonalLoop=1;jettySize=auto;html=1;entryX=0.5;entryY=0;entryDx=0;entryDy=0;" edge="1" parent="WIyWlLk6GJQsqaUBKTNV-1" source="66BMOyi7AVUWOsAnXy_S-1" target="66BMOyi7AVUWOsAnXy_S-3">
          <mxGeometry relative="1" as="geometry" />
        </mxCell>
        <mxCell id="66BMOyi7AVUWOsAnXy_S-1" value="Начало" style="strokeWidth=1;html=1;shape=mxgraph.flowchart.start_1;whiteSpace=wrap;" vertex="1" parent="WIyWlLk6GJQsqaUBKTNV-1">
          <mxGeometry x="85" y="40" width="120" height="60" as="geometry" />
        </mxCell>
        <mxCell id="66BMOyi7AVUWOsAnXy_S-5" value="" style="edgeStyle=orthogonalEdgeStyle;rounded=0;orthogonalLoop=1;jettySize=auto;html=1;strokeWidth=1;" edge="1" parent="WIyWlLk6GJQsqaUBKTNV-1" source="66BMOyi7AVUWOsAnXy_S-3" target="66BMOyi7AVUWOsAnXy_S-4">
          <mxGeometry relative="1" as="geometry" />
        </mxCell>
        <mxCell id="66BMOyi7AVUWOsAnXy_S-3" value="Пользователь даёт ссылку на область" style="shape=parallelogram;perimeter=parallelogramPerimeter;whiteSpace=wrap;html=1;fixedSize=1;strokeWidth=1;" vertex="1" parent="WIyWlLk6GJQsqaUBKTNV-1">
          <mxGeometry x="70" y="140" width="150" height="60" as="geometry" />
        </mxCell>
        <mxCell id="66BMOyi7AVUWOsAnXy_S-4" value="Это последняя страница?" style="rhombus;whiteSpace=wrap;html=1;strokeWidth=1;" vertex="1" parent="WIyWlLk6GJQsqaUBKTNV-1">
          <mxGeometry x="80" y="280" width="130" height="90" as="geometry" />
        </mxCell>
        <mxCell id="66BMOyi7AVUWOsAnXy_S-7" value="Конец" style="strokeWidth=1;html=1;shape=mxgraph.flowchart.start_1;whiteSpace=wrap;" vertex="1" parent="WIyWlLk6GJQsqaUBKTNV-1">
          <mxGeometry x="-35" y="400" width="120" height="60" as="geometry" />
        </mxCell>
        <mxCell id="66BMOyi7AVUWOsAnXy_S-10" value="" style="edgeStyle=orthogonalEdgeStyle;rounded=0;orthogonalLoop=1;jettySize=auto;html=1;strokeWidth=1;" edge="1" parent="WIyWlLk6GJQsqaUBKTNV-1" source="66BMOyi7AVUWOsAnXy_S-8" target="66BMOyi7AVUWOsAnXy_S-9">
          <mxGeometry relative="1" as="geometry" />
        </mxCell>
        <mxCell id="66BMOyi7AVUWOsAnXy_S-8" value="Проходим по всем объявлениям на данной странице" style="strokeWidth=1;html=1;shape=mxgraph.flowchart.loop_limit;whiteSpace=wrap;" vertex="1" parent="WIyWlLk6GJQsqaUBKTNV-1">
          <mxGeometry x="280" y="50" width="120" height="70" as="geometry" />
        </mxCell>
        <mxCell id="66BMOyi7AVUWOsAnXy_S-12" value="" style="edgeStyle=orthogonalEdgeStyle;rounded=0;orthogonalLoop=1;jettySize=auto;html=1;strokeWidth=1;" edge="1" parent="WIyWlLk6GJQsqaUBKTNV-1" source="66BMOyi7AVUWOsAnXy_S-9" target="66BMOyi7AVUWOsAnXy_S-11">
          <mxGeometry relative="1" as="geometry" />
        </mxCell>
        <mxCell id="66BMOyi7AVUWOsAnXy_S-9" value="Собираем всю информацию" style="whiteSpace=wrap;html=1;strokeWidth=1;" vertex="1" parent="WIyWlLk6GJQsqaUBKTNV-1">
          <mxGeometry x="280" y="140" width="120" height="60" as="geometry" />
        </mxCell>
        <mxCell id="66BMOyi7AVUWOsAnXy_S-14" value="да" style="edgeStyle=orthogonalEdgeStyle;rounded=0;orthogonalLoop=1;jettySize=auto;html=1;strokeWidth=1;" edge="1" parent="WIyWlLk6GJQsqaUBKTNV-1" source="66BMOyi7AVUWOsAnXy_S-11" target="66BMOyi7AVUWOsAnXy_S-13">
          <mxGeometry relative="1" as="geometry" />
        </mxCell>
        <mxCell id="66BMOyi7AVUWOsAnXy_S-11" value="Получилось собрать?" style="rhombus;whiteSpace=wrap;html=1;strokeWidth=1;" vertex="1" parent="WIyWlLk6GJQsqaUBKTNV-1">
          <mxGeometry x="285" y="230" width="110" height="95" as="geometry" />
        </mxCell>
        <mxCell id="66BMOyi7AVUWOsAnXy_S-16" value="" style="edgeStyle=orthogonalEdgeStyle;rounded=0;orthogonalLoop=1;jettySize=auto;html=1;strokeWidth=1;" edge="1" parent="WIyWlLk6GJQsqaUBKTNV-1" source="66BMOyi7AVUWOsAnXy_S-13" target="66BMOyi7AVUWOsAnXy_S-15">
          <mxGeometry relative="1" as="geometry" />
        </mxCell>
        <mxCell id="66BMOyi7AVUWOsAnXy_S-13" value="Ищем объявление с такой же ссылкой в БД&amp;nbsp;" style="whiteSpace=wrap;html=1;strokeWidth=1;" vertex="1" parent="WIyWlLk6GJQsqaUBKTNV-1">
          <mxGeometry x="280" y="360" width="120" height="60" as="geometry" />
        </mxCell>
        <mxCell id="66BMOyi7AVUWOsAnXy_S-18" value="да" style="edgeStyle=orthogonalEdgeStyle;rounded=0;orthogonalLoop=1;jettySize=auto;html=1;strokeWidth=1;" edge="1" parent="WIyWlLk6GJQsqaUBKTNV-1" source="66BMOyi7AVUWOsAnXy_S-15" target="66BMOyi7AVUWOsAnXy_S-17">
          <mxGeometry relative="1" as="geometry" />
        </mxCell>
        <mxCell id="66BMOyi7AVUWOsAnXy_S-15" value="Есть такое объявление?" style="rhombus;whiteSpace=wrap;html=1;strokeWidth=1;" vertex="1" parent="WIyWlLk6GJQsqaUBKTNV-1">
          <mxGeometry x="277.5" y="460" width="125" height="100" as="geometry" />
        </mxCell>
        <mxCell id="66BMOyi7AVUWOsAnXy_S-28" style="edgeStyle=orthogonalEdgeStyle;rounded=0;orthogonalLoop=1;jettySize=auto;html=1;entryX=1;entryY=0.5;entryDx=0;entryDy=0;" edge="1" parent="WIyWlLk6GJQsqaUBKTNV-1" source="66BMOyi7AVUWOsAnXy_S-17" target="66BMOyi7AVUWOsAnXy_S-19">
          <mxGeometry relative="1" as="geometry" />
        </mxCell>
        <mxCell id="66BMOyi7AVUWOsAnXy_S-17" value="Вставляем квартиру в БД" style="whiteSpace=wrap;html=1;strokeWidth=1;" vertex="1" parent="WIyWlLk6GJQsqaUBKTNV-1">
          <mxGeometry x="280" y="600" width="120" height="60" as="geometry" />
        </mxCell>
        <mxCell id="66BMOyi7AVUWOsAnXy_S-29" style="edgeStyle=orthogonalEdgeStyle;rounded=0;orthogonalLoop=1;jettySize=auto;html=1;entryX=0.5;entryY=1;entryDx=0;entryDy=0;" edge="1" parent="WIyWlLk6GJQsqaUBKTNV-1" source="66BMOyi7AVUWOsAnXy_S-19" target="66BMOyi7AVUWOsAnXy_S-4">
          <mxGeometry relative="1" as="geometry">
            <Array as="points">
              <mxPoint x="145" y="540" />
              <mxPoint x="145" y="540" />
            </Array>
          </mxGeometry>
        </mxCell>
        <mxCell id="66BMOyi7AVUWOsAnXy_S-19" value="Переходим на следующую квартиру" style="whiteSpace=wrap;html=1;strokeWidth=1;" vertex="1" parent="WIyWlLk6GJQsqaUBKTNV-1">
          <mxGeometry x="85" y="600" width="120" height="60" as="geometry" />
        </mxCell>
        <mxCell id="66BMOyi7AVUWOsAnXy_S-23" value="нет" style="edgeStyle=orthogonalEdgeStyle;rounded=0;orthogonalLoop=1;jettySize=auto;html=1;entryX=0.5;entryY=0;entryDx=0;entryDy=0;entryPerimeter=0;strokeWidth=1;" edge="1" parent="WIyWlLk6GJQsqaUBKTNV-1" source="66BMOyi7AVUWOsAnXy_S-4" target="66BMOyi7AVUWOsAnXy_S-8">
          <mxGeometry x="-0.9551" y="15" relative="1" as="geometry">
            <mxPoint as="offset" />
          </mxGeometry>
        </mxCell>
        <mxCell id="66BMOyi7AVUWOsAnXy_S-24" value="нет" style="edgeStyle=orthogonalEdgeStyle;rounded=0;orthogonalLoop=1;jettySize=auto;html=1;entryX=0;entryY=0.5;entryDx=0;entryDy=0;entryPerimeter=0;strokeWidth=1;" edge="1" parent="WIyWlLk6GJQsqaUBKTNV-1" source="66BMOyi7AVUWOsAnXy_S-11" target="66BMOyi7AVUWOsAnXy_S-8">
          <mxGeometry x="-0.8735" y="-7" relative="1" as="geometry">
            <Array as="points">
              <mxPoint x="260" y="278" />
              <mxPoint x="260" y="85" />
            </Array>
            <mxPoint as="offset" />
          </mxGeometry>
        </mxCell>
        <mxCell id="66BMOyi7AVUWOsAnXy_S-25" value="нет" style="edgeStyle=orthogonalEdgeStyle;rounded=0;orthogonalLoop=1;jettySize=auto;html=1;entryX=0;entryY=0.5;entryDx=0;entryDy=0;entryPerimeter=0;strokeWidth=1;" edge="1" parent="WIyWlLk6GJQsqaUBKTNV-1" source="66BMOyi7AVUWOsAnXy_S-15" target="66BMOyi7AVUWOsAnXy_S-8">
          <mxGeometry x="-0.9678" y="-10" relative="1" as="geometry">
            <Array as="points">
              <mxPoint x="257" y="510" />
              <mxPoint x="257" y="85" />
            </Array>
            <mxPoint as="offset" />
          </mxGeometry>
        </mxCell>
        <mxCell id="66BMOyi7AVUWOsAnXy_S-26" value="да" style="edgeStyle=orthogonalEdgeStyle;rounded=0;orthogonalLoop=1;jettySize=auto;html=1;entryX=0.5;entryY=0;entryDx=0;entryDy=0;entryPerimeter=0;strokeWidth=1;" edge="1" parent="WIyWlLk6GJQsqaUBKTNV-1" source="66BMOyi7AVUWOsAnXy_S-4" target="66BMOyi7AVUWOsAnXy_S-7">
          <mxGeometry x="-0.6922" relative="1" as="geometry">
            <Array as="points">
              <mxPoint x="25" y="325" />
            </Array>
            <mxPoint as="offset" />
          </mxGeometry>
        </mxCell>
      </root>
    </mxGraphModel>
  </diagram>
</mxfile>
